<?xml version="1.0" encoding="UTF-8"?>
<svg xmlns="http://www.w3.org/2000/svg" xmlns:xlink="http://www.w3.org/1999/xlink" viewBox="0 0 746.94 772.38">
  <defs>
    <style>
      .cls-1 {
        fill: #7c7c7c;
      }

      .cls-1, .cls-2, .cls-3, .cls-4, .cls-5, .cls-6, .cls-7, .cls-8, .cls-9, .cls-10, .cls-11, .cls-12, .cls-13, .cls-14, .cls-15, .cls-16, .cls-17, .cls-18, .cls-19, .cls-20, .cls-21, .cls-22, .cls-23, .cls-24, .cls-25, .cls-26, .cls-27, .cls-28, .cls-29, .cls-30, .cls-31, .cls-32, .cls-33, .cls-34, .cls-35, .cls-36, .cls-37, .cls-38, .cls-39, .cls-40, .cls-41, .cls-42, .cls-43, .cls-44, .cls-45, .cls-46, .cls-47, .cls-48, .cls-49, .cls-50, .cls-51, .cls-52, .cls-53, .cls-54, .cls-55, .cls-56, .cls-57, .cls-58, .cls-59, .cls-60, .cls-61, .cls-62, .cls-63, .cls-64, .cls-65, .cls-66, .cls-67, .cls-68, .cls-69, .cls-70, .cls-71, .cls-72, .cls-73, .cls-74, .cls-75, .cls-76, .cls-77, .cls-78, .cls-79, .cls-80, .cls-81, .cls-82, .cls-83, .cls-84, .cls-85, .cls-86, .cls-87, .cls-88, .cls-89, .cls-90, .cls-91, .cls-92, .cls-93, .cls-94, .cls-95, .cls-96, .cls-97, .cls-98, .cls-99, .cls-100, .cls-101, .cls-102, .cls-103, .cls-104, .cls-105, .cls-106, .cls-107, .cls-108, .cls-109, .cls-110, .cls-111, .cls-112, .cls-113, .cls-114, .cls-115, .cls-116, .cls-117, .cls-118, .cls-119, .cls-120, .cls-121, .cls-122, .cls-123, .cls-124, .cls-125, .cls-126, .cls-127, .cls-128, .cls-129, .cls-130, .cls-131, .cls-132, .cls-133, .cls-134, .cls-135, .cls-136, .cls-137, .cls-138, .cls-139, .cls-140, .cls-141, .cls-142, .cls-143, .cls-144, .cls-145, .cls-146, .cls-147, .cls-148, .cls-149, .cls-150, .cls-151 {
        stroke-width: 0px;
      }

      .cls-2 {
        fill: #999;
      }

      .cls-3 {
        fill: #a3a3a3;
      }

      .cls-4 {
        fill: #656565;
      }

      .cls-5 {
        fill: #707070;
      }

      .cls-6 {
        fill: #717171;
      }

      .cls-7 {
        fill: #2e2e2e;
      }

      .cls-8 {
        fill: #3f3f3f;
      }

      .cls-9 {
        fill: #676767;
      }

      .cls-152 {
        fill: #c1272d;
      }

      .cls-152, .cls-153 {
        stroke-width: 3px;
      }

      .cls-152, .cls-153, .cls-154, .cls-155, .cls-156 {
        stroke-miterlimit: 10;
      }

      .cls-152, .cls-154, .cls-155, .cls-156 {
        stroke: #000;
      }

      .cls-10 {
        fill: #4d4d4d;
      }

      .cls-11 {
        fill: #1b1b1b;
      }

      .cls-12 {
        fill: #666;
      }

      .cls-13 {
        fill: #919191;
      }

      .cls-14 {
        fill: #414141;
      }

      .cls-15 {
        fill: #606060;
      }

      .cls-16 {
        fill: #6e6e6e;
      }

      .cls-17 {
        fill: #7d7d7d;
      }

      .cls-18 {
        fill: #b2b2b2;
      }

      .cls-19 {
        fill: #020202;
      }

      .cls-20 {
        fill: #6c6c6c;
      }

      .cls-21 {
        fill: #2f2f2f;
      }

      .cls-22 {
        fill: #0e0e0e;
      }

      .cls-23 {
        fill: #626262;
      }

      .cls-24 {
        fill: #262626;
      }

      .cls-25 {
        fill: #747474;
      }

      .cls-26 {
        fill: #222;
      }

      .cls-27 {
        fill: #474747;
      }

      .cls-28 {
        fill: #060606;
      }

      .cls-29 {
        fill: #848484;
      }

      .cls-30 {
        fill: #454545;
      }

      .cls-31 {
        fill: #949494;
      }

      .cls-32 {
        fill: #898989;
      }

      .cls-33 {
        fill: #363636;
      }

      .cls-34 {
        fill: #252525;
      }

      .cls-35 {
        fill: #5e5e5e;
      }

      .cls-36 {
        fill: #030303;
      }

      .cls-37 {
        fill: #171717;
      }

      .cls-38 {
        fill: #050505;
      }

      .cls-39 {
        fill: #797979;
      }

      .cls-40 {
        fill: #727272;
      }

      .cls-41 {
        fill: #8e8e8e;
      }

      .cls-42 {
        fill: #8c8c8c;
      }

      .cls-43 {
        fill: #505050;
      }

      .cls-45 {
        fill: #323232;
      }

      .cls-46 {
        fill: #9c9c9c;
      }

      .cls-47 {
        fill: #9e9e9e;
      }

      .cls-48 {
        fill: #939393;
      }

      .cls-49 {
        fill: #a7a7a7;
      }

      .cls-50 {
        fill: #989898;
      }

      .cls-51 {
        fill: #393939;
      }

      .cls-52, .cls-156 {
        fill: none;
      }

      .cls-53 {
        fill: #6b6b6b;
      }

      .cls-54 {
        fill: #141414;
      }

      .cls-55 {
        fill: #909090;
      }

      .cls-56 {
        fill: #686868;
      }

      .cls-57 {
        fill: #9b9b9b;
      }

      .cls-58 {
        fill: #aeaeae;
      }

      .cls-59 {
        fill: #646464;
      }

      .cls-60 {
        fill: #777;
      }

      .cls-61 {
        fill: gray;
      }

      .cls-62 {
        fill: #868686;
      }

      .cls-63 {
        fill: #5a5a5a;
      }

      .cls-64 {
        fill: #161616;
      }

      .cls-65 {
        fill: #b3b3b3;
      }

      .cls-66 {
        fill: #2b2b2b;
      }

      .cls-67 {
        fill: #333;
      }

      .cls-68 {
        fill: #7b7b7b;
      }

      .cls-69 {
        fill: #7f7f7f;
      }

      .cls-70 {
        fill: #545454;
      }

      .cls-71 {
        fill: #7a7a7a;
      }

      .cls-72 {
        fill: #7e7e7e;
      }

      .cls-73 {
        fill: #0d0d0d;
      }

      .cls-74 {
        fill: #494949;
      }

      .cls-75 {
        fill: #a1a1a1;
      }

      .cls-76 {
        fill: #8d8d8d;
      }

      .cls-77 {
        fill: #787878;
      }

      .cls-78 {
        fill: #484848;
      }

      .cls-79 {
        fill: #969696;
      }

      .cls-80 {
        fill: #a0a0a0;
      }

      .cls-81 {
        fill: #9f9f9f;
      }

      .cls-82 {
        fill: #9d9d9d;
      }

      .cls-83 {
        fill: #515151;
      }

      .cls-84 {
        fill: #888;
      }

      .cls-85 {
        fill: #5f5f5f;
      }

      .cls-86 {
        fill: #818181;
      }

      .cls-87 {
        fill: #b1b1b1;
      }

      .cls-153 {
        stroke: #10bf00;
      }

      .cls-153, .cls-106 {
        fill: lime;
        opacity: .5;
      }

      .cls-88 {
        fill: #b0b0b0;
      }

      .cls-89 {
        fill: #4b4b4b;
      }

      .cls-90 {
        fill: #3d3d3d;
      }

      .cls-91 {
        fill: #595959;
      }

      .cls-92 {
        fill: #4c4c4c;
      }

      .cls-93 {
        fill: #878787;
      }

      .cls-94 {
        fill: #a2a2a2;
      }

      .cls-95 {
        fill: #2c2c2c;
      }

      .cls-96 {
        fill: #858585;
      }

      .cls-97 {
        fill: #5c5c5c;
      }

      .cls-98 {
        fill: #575757;
      }

      .cls-157 {
        clip-path: url(#clippath);
      }

      .cls-158 {
        opacity: .76;
      }

      .cls-99 {
        fill: #1f1f1f;
      }

      .cls-100 {
        fill: #8a8a8a;
      }

      .cls-101 {
        fill: #a5a5a5;
      }

      .cls-102 {
        fill: #a8a8a8;
      }

      .cls-103 {
        fill: #434343;
      }

      .cls-104 {
        fill: #4f4f4f;
      }

      .cls-105 {
        fill: #a6a6a6;
      }

      .cls-107 {
        fill: #565656;
      }

      .cls-108 {
        fill: #353535;
      }

      .cls-109 {
        fill: #acacac;
      }

      .cls-110 {
        fill: #696969;
      }

      .cls-111 {
        fill: #101010;
      }

      .cls-112 {
        fill: #9a9a9a;
      }

      .cls-113 {
        fill: #616161;
      }

      .cls-114 {
        fill: #0b0b0b;
      }

      .cls-115 {
        fill: #404040;
      }

      .cls-116 {
        fill: #838383;
      }

      .cls-117 {
        fill: #3c3c3c;
      }

      .cls-118 {
        fill: #313131;
      }

      .cls-119 {
        fill: #444;
      }

      .cls-120 {
        fill: #a9a9a9;
      }

      .cls-154 {
        fill: #006837;
        stroke-width: 2px;
      }

      .cls-121 {
        fill: #3a3a3a;
      }

      .cls-122 {
        fill: #979797;
      }

      .cls-123 {
        fill: #282828;
      }

      .cls-124 {
        fill: #6f6f6f;
      }

      .cls-125 {
        fill: #828282;
      }

      .cls-126 {
        fill: #6d6d6d;
      }

      .cls-127 {
        fill: #8f8f8f;
      }

      .cls-128 {
        fill: #1c1c1c;
      }

      .cls-155 {
        fill: #fbb03b;
      }

      .cls-129 {
        fill: #1e1e1e;
      }

      .cls-130 {
        fill: #8b8b8b;
      }

      .cls-131 {
        fill: #212121;
      }

      .cls-132 {
        fill: #292929;
      }

      .cls-133 {
        fill: #191919;
      }

      .cls-134 {
        fill: #0a0a0a;
      }

      .cls-135 {
        fill: #afafaf;
      }

      .cls-136 {
        fill: #525252;
      }

      .cls-137 {
        fill: #ababab;
      }

      .cls-138 {
        fill: #767676;
      }

      .cls-139 {
        fill: #383838;
      }

      .cls-140 {
        fill: #555;
      }

      .cls-141 {
        fill: #959595;
      }

      .cls-142 {
        fill: #242424;
      }

      .cls-143 {
        fill: #aaa;
      }

      .cls-156 {
        stroke-width: .5px;
      }

      .cls-144 {
        fill: #080808;
      }

      .cls-145 {
        fill: #757575;
      }

      .cls-146 {
        fill: #a4a4a4;
      }

      .cls-147 {
        fill: #929292;
      }

      .cls-148 {
        fill: #131313;
      }

      .cls-149 {
        fill: #5b5b5b;
      }

      .cls-150 {
        fill: #111;
      }

      .cls-151 {
        fill: #adadad;
      }
    </style>
    <clipPath id="clippath">
      <polygon class="cls-52" points="597.93 764.39 150.36 764.39 374.14 674.43 597.93 764.39"/>
    </clipPath>
  </defs>
  <g id="top_liquid" data-name="top  liquid">
    <path class="cls-153" d="M607.69,113.87c0,1.39-2.56,2.75-7.36,4.04-25.96,6.98-117.54,12.13-226.54,12.13s-200.58-5.15-226.54-12.13c-4.8-1.29-7.36-2.65-7.36-4.04,0-8.94,104.72-16.18,233.9-16.18s233.9,7.24,233.9,16.18Z"/>
  </g>
  <g id="olive">
    <g>
      <path class="cls-154" d="M474.33,158.74l-9.64,8.28c1.44,1.52,2.27,2.78,1.97,3.12-.31.36-1.77-.39-3.57-1.75-.57-.44-1.18-.94-1.79-1.48-.82-.72-1.55-1.44-2.15-2.09-1.28-1.39-1.98-2.5-1.7-2.82.3-.33,1.55.29,3.16,1.46l9.05-8.42c-4.7-3.26-10.27-5.84-16.45-7.4-21.8-5.51-42.92,3.68-47.17,20.51-2.99,11.82,3.14,24.26,14.6,32.54.89.64,1.81,1.25,2.76,1.84,4.25,2.63,9.11,4.72,14.41,6.06,21.8,5.51,42.92-3.68,47.17-20.51,2.62-10.38-1.78-21.24-10.66-29.34ZM431.93,168.83c-7.45-1.88-12.59-6.98-11.47-11.4s8.05-6.47,15.51-4.59,12.59,6.98,11.47,11.4c-1.12,4.42-8.05,6.47-15.51,4.59Z"/>
      <ellipse class="cls-152" cx="433.94" cy="160.84" rx="8.24" ry="13.91" transform="translate(171.73 542.18) rotate(-75.82)"/>
    </g>
    <path class="cls-155" d="M420.05,200.29c1.16.83,2.35,1.63,3.57,2.39l-70.25,60.4c-.35.3-.66-.06-.34-.36l67.01-62.43Z"/>
    <path class="cls-155" d="M555.29,90.75l-74.36,63.94-13.59,11.67-2.24,1.94c-.8-.62-1.66-1.32-2.53-2.09-1.15-1.01-2.18-2.03-3.03-2.95l2.06-1.92,12.75-11.87,72.79-67.81c.16-.14.37-.16.48-.06l7.77,8.69c.11.12.05.33-.1.47Z"/>
  </g>
  <g id="bottom_liquid" data-name="bottom liquid">
    <path class="cls-156" d="M498.81,126.99l15.5-.49"/>
    <path class="cls-106" d="M607.59,117.5l-233.9,153.39L139.79,117.5h7.36c25.96,6.98,117.54,12.13,226.54,12.13s200.58-5.15,226.54-12.13h7.36Z"/>
  </g>
  <g id="glass">
    <path class="cls-44" d="M374.14,4c95.59,0,186.4,2.62,255.71,7.39,86.99,5.98,106.92,13.01,111.4,15.58-4.48,2.57-24.41,9.6-111.4,15.58-69.31,4.76-160.12,7.39-255.71,7.39s-186.4-2.62-255.71-7.39C31.44,36.56,11.52,29.53,7.03,26.96c4.48-2.57,24.41-9.6,111.4-15.58,69.31-4.76,160.12-7.39,255.71-7.39h0ZM374.14,0C168.65,0,2.06,12.07,2.06,26.96s166.59,26.96,372.08,26.96,372.08-12.07,372.08-26.96S579.64,0,374.14,0h0Z"/>
    <rect class="cls-44" x="184.93" y="-73.28" width="5" height="447.19" transform="translate(-41.61 222.89) rotate(-56.31)"/>
    <rect class="cls-44" x="335.92" y="147.82" width="447.19" height="5" transform="translate(10.59 335.61) rotate(-33.69)"/>
    <rect class="cls-44" x="368.47" y="270.3" width="10" height="404.44"/>
    <g class="cls-158">
      <g class="cls-157">
        <rect class="cls-44" x="150.36" y="674.43" width="447.58" height="89.96"/>
        <polygon class="cls-44" points="598.93 719.41 598.93 765.39 149.36 765.39 149.36 673.43 598.93 673.43 598.93 719.41"/>
        <path class="cls-19" d="M602.79,719.41c0,15.78-1.6,31.2-4.65,46.08v-.1H150.14v.1c-3.05-14.88-4.65-30.3-4.65-46.08s1.6-31.2,4.65-46.08v.1h448v-.1c3.05,14.88,4.65,30.3,4.65,46.08Z"/>
        <path class="cls-36" d="M601.51,719.41c0,15.7-1.59,31.02-4.62,45.82-.38,1.85-.78,3.69-1.2,5.53v-5.37H152.6v5.37c-.42-1.83-.82-3.68-1.2-5.53-3.03-14.8-4.62-30.13-4.62-45.82s1.59-31.02,4.62-45.82c.38-1.85.78-3.69,1.2-5.53v5.37h443.08v-5.37c.42,1.83.82,3.68,1.2,5.53,3.03,14.8,4.62,30.13,4.62,45.82Z"/>
        <path class="cls-38" d="M600.22,719.41c0,15.61-1.58,30.85-4.59,45.56-.38,1.84-.78,3.67-1.2,5.49v-5.08H153.86v5.08c-.42-1.82-.82-3.65-1.2-5.49-3.01-14.72-4.59-29.96-4.59-45.56s1.58-30.85,4.59-45.56c.38-1.84.78-3.67,1.2-5.49v5.08h440.58v-5.08c.42,1.82.82,3.65,1.2,5.49,3.01,14.72,4.59,29.96,4.59,45.56Z"/>
        <path class="cls-28" d="M598.94,719.41c0,15.52-1.57,30.67-4.57,45.3-.37,1.83-.77,3.65-1.19,5.46v-4.79H155.11v4.79c-.42-1.81-.81-3.63-1.19-5.46-2.99-14.63-4.57-29.78-4.57-45.3s1.57-30.67,4.57-45.3c.37-1.83.77-3.65,1.19-5.46v4.79h438.07v-4.79c.42,1.81.81,3.63,1.19,5.46,2.99,14.63,4.57,29.78,4.57,45.3Z"/>
        <path class="cls-144" d="M597.65,719.41c0,15.43-1.56,30.49-4.54,45.04-.37,1.82-.77,3.63-1.18,5.43v-4.5H156.36v4.5c-.42-1.8-.81-3.61-1.18-5.43-2.98-14.55-4.54-29.61-4.54-45.04s1.56-30.49,4.54-45.04c.37-1.82.77-3.63,1.18-5.43v4.5h435.57v-4.5c.42,1.8.81,3.61,1.18,5.43,2.98,14.55,4.54,29.61,4.54,45.04Z"/>
        <path class="cls-134" d="M596.37,719.41c0,15.34-1.55,30.32-4.51,44.79-.37,1.81-.76,3.61-1.18,5.4v-4.21H157.61v4.21c-.41-1.79-.81-3.59-1.18-5.4-2.96-14.47-4.51-29.44-4.51-44.79s1.55-30.32,4.51-44.79c.37-1.81.76-3.61,1.18-5.4v4.21h433.07v-4.21c.41,1.79.81,3.59,1.18,5.4,2.96,14.47,4.51,29.44,4.51,44.79Z"/>
        <path class="cls-114" d="M595.08,719.41c0,15.25-1.55,30.14-4.49,44.53-.37,1.8-.76,3.59-1.17,5.37v-3.92H158.86v3.92c-.41-1.78-.8-3.57-1.17-5.37-2.94-14.38-4.49-29.27-4.49-44.53s1.55-30.14,4.49-44.53c.37-1.8.76-3.59,1.17-5.37v3.92h430.56v-3.92c.41,1.78.8,3.57,1.17,5.37,2.94,14.38,4.49,29.27,4.49,44.53Z"/>
        <path class="cls-73" d="M593.8,719.41c0,15.16-1.54,29.97-4.46,44.27-.37,1.79-.75,3.57-1.16,5.34v-3.63H160.11v3.63c-.41-1.77-.8-3.55-1.16-5.34-2.93-14.3-4.46-29.1-4.46-44.27s1.54-29.97,4.46-44.27c.37-1.79.75-3.57,1.16-5.34v3.63h428.06v-3.63c.41,1.77.8,3.55,1.16,5.34,2.93,14.3,4.46,29.1,4.46,44.27Z"/>
        <path class="cls-22" d="M592.51,719.41c0,15.08-1.53,29.79-4.44,44.01-.36,1.78-.75,3.55-1.16,5.31v-3.34H161.37v3.34c-.41-1.76-.79-3.53-1.16-5.31-2.91-14.22-4.44-28.93-4.44-44.01s1.53-29.79,4.44-44.01c.36-1.78.75-3.55,1.16-5.31v3.34h425.56v-3.34c.41,1.76.79,3.53,1.16,5.31,2.91,14.22,4.44,28.93,4.44,44.01Z"/>
        <path class="cls-111" d="M591.23,719.41c0,14.99-1.52,29.62-4.41,43.75-.36,1.77-.74,3.53-1.15,5.28v-3.05H162.62v3.05c-.4-1.75-.79-3.51-1.15-5.28-2.89-14.13-4.41-28.76-4.41-43.75s1.52-29.62,4.41-43.75c.36-1.77.74-3.53,1.15-5.28v3.05h423.05v-3.05c.4,1.75.79,3.51,1.15,5.28,2.89,14.13,4.41,28.76,4.41,43.75Z"/>
        <path class="cls-150" d="M589.95,719.41c0,14.9-1.51,29.44-4.38,43.49-.36,1.76-.74,3.5-1.14,5.24v-2.76H163.87v2.76c-.4-1.74-.78-3.49-1.14-5.24-2.87-14.05-4.38-28.59-4.38-43.49s1.51-29.44,4.38-43.49c.36-1.76.74-3.5,1.14-5.24v2.76h420.55v-2.76c.4,1.74.78,3.49,1.14,5.24,2.87,14.05,4.38,28.59,4.38,43.49Z"/>
        <path class="cls-148" d="M588.66,719.41c0,14.81-1.5,29.27-4.36,43.23-.36,1.75-.74,3.48-1.13,5.21v-2.47H165.12v2.47c-.4-1.73-.78-3.47-1.13-5.21-2.86-13.96-4.36-28.42-4.36-43.23s1.5-29.27,4.36-43.23c.36-1.75.74-3.48,1.13-5.21v2.47h418.05v-2.47c.4,1.73.78,3.47,1.13,5.21,2.86,13.96,4.36,28.42,4.36,43.23Z"/>
        <path class="cls-54" d="M587.38,719.41c0,14.72-1.49,29.09-4.33,42.97-.36,1.74-.73,3.46-1.13,5.18v-2.18H166.37v2.18c-.4-1.72-.77-3.45-1.13-5.18-2.84-13.88-4.33-28.25-4.33-42.97s1.49-29.09,4.33-42.97c.36-1.74.73-3.46,1.13-5.18v2.18h415.54v-2.18c.4,1.72.77,3.45,1.13,5.18,2.84,13.88,4.33,28.25,4.33,42.97Z"/>
        <path class="cls-64" d="M586.09,719.41c0,14.63-1.48,28.92-4.31,42.71-.71,3.45-1.5,6.87-2.37,10.25v-6.99H168.87v6.99c-.87-3.39-1.66-6.8-2.37-10.25-2.82-13.8-4.31-28.08-4.31-42.71s1.48-28.92,4.31-42.71c.71-3.45,1.5-6.87,2.37-10.25v6.99h410.55v-6.99c.87,3.39,1.66,6.8,2.37,10.25,2.82,13.8,4.31,28.08,4.31,42.71Z"/>
        <path class="cls-37" d="M584.81,719.41c0,14.54-1.47,28.74-4.28,42.46-.7,3.43-1.49,6.83-2.35,10.19v-6.67H170.11v6.67c-.87-3.37-1.65-6.76-2.35-10.19-2.81-13.71-4.28-27.91-4.28-42.46s1.47-28.74,4.28-42.46c.7-3.43,1.49-6.83,2.35-10.19v6.67h408.06v-6.67c.87,3.37,1.65,6.76,2.35,10.19,2.81,13.71,4.28,27.91,4.28,42.46Z"/>
        <path class="cls-133" d="M583.52,719.41c0,14.45-1.46,28.57-4.25,42.2-.7,3.41-1.48,6.78-2.34,10.13v-6.35H171.36v6.35c-.86-3.35-1.64-6.72-2.34-10.13-2.79-13.63-4.25-27.74-4.25-42.2s1.46-28.57,4.25-42.2c.7-3.41,1.48-6.78,2.34-10.13v6.35h405.57v-6.35c.86,3.35,1.64,6.72,2.34,10.13,2.79,13.63,4.25,27.74,4.25,42.2Z"/>
        <path class="cls-11" d="M582.24,719.41c0,14.37-1.46,28.39-4.23,41.94-.69,3.39-1.47,6.74-2.32,10.07v-6.03H172.6v6.03c-.86-3.32-1.63-6.68-2.32-10.07-2.77-13.55-4.23-27.57-4.23-41.94s1.46-28.39,4.23-41.94c.69-3.39,1.47-6.74,2.32-10.07v6.03h403.08v-6.03c.86,3.32,1.63,6.68,2.32,10.07,2.77,13.55,4.23,27.57,4.23,41.94Z"/>
        <path class="cls-128" d="M580.95,719.41c0,14.28-1.45,28.22-4.2,41.68-.69,3.37-1.46,6.7-2.31,10.01v-5.7H173.85v5.7c-.85-3.3-1.62-6.64-2.31-10.01-2.75-13.46-4.2-27.4-4.2-41.68s1.45-28.22,4.2-41.68c.69-3.37,1.46-6.7,2.31-10.01v5.7h400.6v-5.7c.85,3.3,1.62,6.64,2.31,10.01,2.75,13.46,4.2,27.4,4.2,41.68Z"/>
        <path class="cls-129" d="M579.67,719.41c0,14.19-1.44,28.04-4.18,41.42-.68,3.34-1.45,6.66-2.29,9.94v-5.38H175.09v5.38c-.84-3.28-1.61-6.6-2.29-9.94-2.74-13.38-4.18-27.23-4.18-41.42s1.44-28.04,4.18-41.42c.68-3.34,1.45-6.66,2.29-9.94v5.38h398.11v-5.38c.84,3.28,1.61,6.6,2.29,9.94,2.74,13.38,4.18,27.23,4.18,41.42Z"/>
        <path class="cls-99" d="M578.38,719.41c0,14.1-1.43,27.87-4.15,41.16-.68,3.32-1.44,6.62-2.28,9.88v-5.06H176.33v5.06c-.84-3.26-1.6-6.56-2.28-9.88-2.72-13.3-4.15-27.06-4.15-41.16s1.43-27.87,4.15-41.16c.68-3.32,1.44-6.62,2.28-9.88v5.06h395.62v-5.06c.84,3.26,1.6,6.56,2.28,9.88,2.72,13.3,4.15,27.06,4.15,41.16Z"/>
        <path class="cls-131" d="M577.1,719.41c0,14.01-1.42,27.69-4.12,40.9-.68,3.3-1.43,6.58-2.27,9.82v-4.74H177.58v4.74c-.83-3.24-1.59-6.52-2.27-9.82-2.7-13.21-4.12-26.89-4.12-40.9s1.42-27.69,4.12-40.9c.68-3.3,1.43-6.58,2.27-9.82v4.74h393.13v-4.74c.83,3.24,1.59,6.52,2.27,9.82,2.7,13.21,4.12,26.89,4.12,40.9Z"/>
        <path class="cls-26" d="M575.82,719.41c0,13.92-1.41,27.52-4.1,40.64-.67,3.28-1.42,6.54-2.25,9.76v-4.42H178.82v4.42c-.83-3.22-1.58-6.47-2.25-9.76-2.69-13.13-4.1-26.72-4.1-40.64s1.41-27.52,4.1-40.64c.67-3.28,1.42-6.54,2.25-9.76v4.42h390.64v-4.42c.83,3.22,1.58,6.47,2.25,9.76,2.69,13.13,4.1,26.72,4.1,40.64Z"/>
        <path class="cls-142" d="M574.53,719.41c0,13.83-1.4,27.34-4.07,40.38-.67,3.26-1.41,6.49-2.24,9.69v-4.1H180.07v4.1c-.82-3.2-1.57-6.43-2.24-9.69-2.67-13.04-4.07-26.55-4.07-40.38s1.4-27.34,4.07-40.38c.67-3.26,1.41-6.49,2.24-9.69v4.1h388.16v-4.1c.82,3.2,1.57,6.43,2.24,9.69,2.67,13.04,4.07,26.55,4.07,40.38Z"/>
        <path class="cls-34" d="M573.25,719.41c0,13.75-1.39,27.16-4.05,40.13-.66,3.24-1.4,6.45-2.22,9.63v-3.78H181.31v3.78c-.82-3.18-1.56-6.39-2.22-9.63-2.65-12.96-4.05-26.38-4.05-40.13s1.39-27.16,4.05-40.13c.66-3.24,1.4-6.45,2.22-9.63v3.78h385.67v-3.78c.82,3.18,1.56,6.39,2.22,9.63,2.65,12.96,4.05,26.38,4.05,40.13Z"/>
        <path class="cls-24" d="M571.96,719.41c0,13.66-1.38,26.99-4.02,39.87-.66,3.22-1.4,6.41-2.21,9.57v-3.46H182.55v3.46c-.81-3.16-1.55-6.35-2.21-9.57-2.64-12.88-4.02-26.21-4.02-39.87s1.38-26.99,4.02-39.87c.66-3.22,1.4-6.41,2.21-9.57v3.46h383.18v-3.46c.81,3.16,1.55,6.35,2.21,9.57,2.64,12.88,4.02,26.21,4.02,39.87Z"/>
        <path class="cls-123" d="M570.68,719.41c0,13.57-1.37,26.81-3.99,39.61-.65,3.2-1.39,6.37-2.19,9.51v-3.14H183.8v3.14c-.81-3.14-1.54-6.31-2.19-9.51-2.62-12.79-3.99-26.04-3.99-39.61s1.37-26.81,3.99-39.61c.65-3.2,1.39-6.37,2.19-9.51v3.14h380.69v-3.14c.81,3.14,1.54,6.31,2.19,9.51,2.62,12.79,3.99,26.04,3.99,39.61Z"/>
        <path class="cls-132" d="M569.39,719.41c0,13.48-1.37,26.64-3.97,39.35-.65,3.18-1.38,6.33-2.18,9.45v-2.82H185.04v2.82c-.8-3.12-1.53-6.27-2.18-9.45-2.6-12.71-3.97-25.87-3.97-39.35s1.37-26.64,3.97-39.35c.65-3.18,1.38-6.33,2.18-9.45v2.82h378.2v-2.82c.8,3.12,1.53,6.27,2.18,9.45,2.6,12.71,3.97,25.87,3.97,39.35Z"/>
        <path class="cls-66" d="M568.11,719.41c0,13.39-1.36,26.46-3.94,39.09-.65,3.16-1.37,6.29-2.17,9.38v-2.49H186.29v2.49c-.8-3.1-1.52-6.23-2.17-9.38-2.58-12.63-3.94-25.7-3.94-39.09s1.36-26.46,3.94-39.09c.65-3.16,1.37-6.29,2.17-9.38v2.49h375.71v-2.49c.8,3.1,1.52,6.23,2.17,9.38,2.58,12.63,3.94,25.7,3.94,39.09Z"/>
        <path class="cls-95" d="M566.82,719.41c0,13.3-1.35,26.29-3.91,38.83-.64,3.14-1.36,6.24-2.15,9.32v-2.17H187.53v2.17c-.79-3.08-1.51-6.19-2.15-9.32-2.57-12.54-3.91-25.53-3.91-38.83s1.35-26.29,3.91-38.83c.64-3.14,1.36-6.24,2.15-9.32v2.17h373.23v-2.17c.79,3.08,1.51,6.19,2.15,9.32,2.57,12.54,3.91,25.53,3.91,38.83Z"/>
        <path class="cls-7" d="M565.54,719.41c0,13.21-1.34,26.11-3.89,38.57-.64,3.11-1.35,6.2-2.14,9.26v-1.85H188.77v1.85c-.79-3.06-1.5-6.14-2.14-9.26-2.55-12.46-3.89-25.36-3.89-38.57s1.34-26.11,3.89-38.57c.64-3.11,1.35-6.2,2.14-9.26v1.85h370.74v-1.85c.79,3.06,1.5,6.14,2.14,9.26,2.55,12.46,3.89,25.36,3.89,38.57Z"/>
        <path class="cls-21" d="M564.25,719.41c0,13.12-1.33,25.94-3.86,38.31-.63,3.09-1.34,6.16-2.12,9.2v-1.53H190.02v1.53c-.78-3.04-1.49-6.1-2.12-9.2-2.53-12.38-3.86-25.19-3.86-38.31s1.33-25.94,3.86-38.31c.63-3.09,1.34-6.16,2.12-9.2v1.53h368.25v-1.53c.78,3.04,1.49,6.1,2.12,9.2,2.53,12.38,3.86,25.19,3.86,38.31Z"/>
        <path class="cls-118" d="M562.97,719.41c0,13.04-1.32,25.76-3.84,38.05-.63,3.07-1.33,6.12-2.11,9.14v-1.21H191.26v1.21c-.78-3.02-1.48-6.06-2.11-9.14-2.52-12.29-3.84-25.02-3.84-38.05s1.32-25.76,3.84-38.05c.63-3.07,1.33-6.12,2.11-9.14v1.21h365.76v-1.21c.78,3.02,1.48,6.06,2.11,9.14,2.52,12.29,3.84,25.02,3.84,38.05Z"/>
        <path class="cls-45" d="M561.69,719.41c0,12.95-1.31,25.59-3.81,37.8-.62,3.05-1.32,6.08-2.09,9.07v-.89H192.51v.89c-.77-3-1.47-6.02-2.09-9.07-2.5-12.21-3.81-24.85-3.81-37.8s1.31-25.59,3.81-37.8c.62-3.05,1.32-6.08,2.09-9.07v.89h363.27v-.89c.77,3,1.47,6.02,2.09,9.07,2.5,12.21,3.81,24.85,3.81,37.8Z"/>
        <path class="cls-67" d="M560.4,719.41c0,12.86-1.3,25.41-3.78,37.54-.62,3.03-1.31,6.04-2.08,9.01v-.57H193.75v.57c-.77-2.98-1.46-5.98-2.08-9.01-2.48-12.12-3.78-24.68-3.78-37.54s1.3-25.41,3.78-37.54c.62-3.03,1.31-6.04,2.08-9.01v.57h360.79v-.57c.77,2.98,1.46,5.98,2.08,9.01,2.48,12.12,3.78,24.68,3.78,37.54Z"/>
        <path class="cls-108" d="M559.12,719.41c0,12.77-1.29,25.24-3.76,37.28-.62,3.01-1.31,5.99-2.07,8.95v-.25H195v.25c-.76-2.96-1.45-5.94-2.07-8.95-2.46-12.04-3.76-24.51-3.76-37.28s1.29-25.24,3.76-37.28c.62-3.01,1.31-5.99,2.07-8.95v.25h358.3v-.25c.76,2.96,1.45,5.94,2.07,8.95,2.46,12.04,3.76,24.51,3.76,37.28Z"/>
        <path class="cls-33" d="M557.83,719.41c0,12.68-1.28,25.06-3.73,37.02-.61,2.99-1.3,5.95-2.05,8.89-.38,1.47-.77,2.93-1.19,4.38v-4.31H197.42v4.31c-.41-1.45-.81-2.91-1.19-4.38-.76-2.93-1.44-5.9-2.05-8.89-2.45-11.96-3.73-24.34-3.73-37.02s1.28-25.06,3.73-37.02c.61-2.99,1.3-5.95,2.05-8.89.38-1.47.77-2.93,1.19-4.38v4.31h353.44v-4.31c.41,1.45.81,2.91,1.19,4.38.76,2.93,1.44,5.9,2.05,8.89,2.45,11.96,3.73,24.34,3.73,37.02Z"/>
        <path class="cls-139" d="M556.55,719.41c0,12.59-1.28,24.89-3.71,36.76-.61,2.97-1.29,5.91-2.04,8.82-.37,1.46-.77,2.91-1.18,4.35v-3.95H198.66v3.95c-.41-1.44-.8-2.89-1.18-4.35-.75-2.91-1.43-5.86-2.04-8.82-2.43-11.87-3.71-24.17-3.71-36.76s1.28-24.89,3.71-36.76c.61-2.97,1.29-5.91,2.04-8.82.37-1.46.77-2.91,1.18-4.35v3.95h350.97v-3.95c.41,1.44.8,2.89,1.18,4.35.75,2.91,1.43,5.86,2.04,8.82,2.43,11.87,3.71,24.17,3.71,36.76Z"/>
        <path class="cls-51" d="M555.26,719.41c0,12.5-1.27,24.71-3.68,36.5-.6,2.95-1.28,5.87-2.02,8.76-.37,1.45-.76,2.89-1.17,4.32v-3.6H199.9v3.6c-.41-1.43-.8-2.87-1.17-4.32-.74-2.89-1.42-5.82-2.02-8.76-2.41-11.79-3.68-24-3.68-36.5s1.27-24.71,3.68-36.5c.6-2.95,1.28-5.87,2.02-8.76.37-1.45.76-2.89,1.17-4.32v3.6h348.5v-3.6c.41,1.43.8,2.87,1.17,4.32.74,2.89,1.42,5.82,2.02,8.76,2.41,11.79,3.68,24,3.68,36.5Z"/>
        <path class="cls-121" d="M553.98,719.41c0,12.41-1.26,24.54-3.65,36.24-.6,2.93-1.27,5.83-2.01,8.7-.37,1.44-.76,2.87-1.16,4.29v-3.25H201.13v3.25c-.4-1.42-.79-2.85-1.16-4.29-.74-2.87-1.41-5.77-2.01-8.7-2.4-11.71-3.65-23.83-3.65-36.24s1.26-24.54,3.65-36.24c.6-2.93,1.27-5.83,2.01-8.7.37-1.44.76-2.87,1.16-4.29v3.25h346.02v-3.25c.4,1.42.79,2.85,1.16,4.29.74,2.87,1.41,5.77,2.01,8.7,2.4,11.71,3.65,23.83,3.65,36.24Z"/>
        <path class="cls-117" d="M552.69,719.41c0,12.33-1.25,24.36-3.63,35.98-.59,2.91-1.26,5.79-1.99,8.64-.37,1.43-.75,2.85-1.15,4.26v-2.9H202.37v2.9c-.4-1.41-.79-2.83-1.15-4.26-.73-2.85-1.4-5.73-1.99-8.64-2.38-11.62-3.63-23.66-3.63-35.98s1.25-24.36,3.63-35.98c.59-2.91,1.26-5.79,1.99-8.64.37-1.43.75-2.85,1.15-4.26v2.9h343.55v-2.9c.4,1.41.79,2.83,1.15,4.26.73,2.85,1.4,5.73,1.99,8.64,2.38,11.62,3.63,23.66,3.63,35.98Z"/>
        <path class="cls-90" d="M551.41,719.41c0,12.24-1.24,24.19-3.6,35.73-1.18,5.77-2.64,11.44-4.37,16.99v-6.73H204.85v6.73c-1.73-5.55-3.19-11.22-4.37-16.99-2.36-11.54-3.6-23.49-3.6-35.73s1.24-24.19,3.6-35.73c1.18-5.77,2.64-11.44,4.37-16.99v6.73h338.59v-6.73c1.73,5.55,3.19,11.22,4.37,16.99,2.36,11.54,3.6,23.49,3.6,35.73Z"/>
        <path class="cls-8" d="M550.12,719.41c0,12.15-1.23,24.01-3.58,35.47-1.17,5.73-2.62,11.35-4.34,16.87v-6.35H206.08v6.35c-1.71-5.51-3.16-11.14-4.34-16.87-2.34-11.46-3.58-23.32-3.58-35.47s1.23-24.01,3.58-35.47c1.17-5.73,2.62-11.35,4.34-16.87v6.35h336.14v-6.35c1.71,5.51,3.16,11.14,4.34,16.87,2.34,11.46,3.58,23.32,3.58,35.47Z"/>
        <path class="cls-115" d="M548.84,719.41c0,12.06-1.22,23.84-3.55,35.21-1.16,5.69-2.6,11.27-4.3,16.74v-5.97H207.3v5.97c-1.7-5.47-3.14-11.06-4.3-16.74-2.33-11.37-3.55-23.15-3.55-35.21s1.22-23.84,3.55-35.21c1.16-5.69,2.6-11.27,4.3-16.74v5.97h333.68v-5.97c1.7,5.47,3.14,11.06,4.3,16.74,2.33,11.37,3.55,23.15,3.55,35.21Z"/>
        <path class="cls-14" d="M547.56,719.41c0,11.97-1.21,23.66-3.52,34.95-1.15,5.64-2.58,11.19-4.27,16.62v-5.59H208.53v5.59c-1.69-5.43-3.12-10.97-4.27-16.62-2.31-11.29-3.52-22.98-3.52-34.95s1.21-23.66,3.52-34.95c1.15-5.64,2.58-11.19,4.27-16.62v5.59h331.23v-5.59c1.69,5.43,3.12,10.97,4.27,16.62,2.31,11.29,3.52,22.98,3.52,34.95Z"/>
        <path class="cls-103" d="M546.27,719.41c0,11.88-1.2,23.48-3.5,34.69-1.15,5.6-2.57,11.11-4.24,16.5v-5.2H209.76v5.2c-1.68-5.39-3.1-10.89-4.24-16.5-2.29-11.21-3.5-22.81-3.5-34.69s1.2-23.48,3.5-34.69c1.15-5.6,2.57-11.11,4.24-16.5v5.2h328.78v-5.2c1.68,5.39,3.1,10.89,4.24,16.5,2.29,11.21,3.5,22.81,3.5,34.69Z"/>
        <path class="cls-119" d="M544.99,719.41c0,11.79-1.2,23.31-3.47,34.43-1.14,5.56-2.55,11.02-4.21,16.37v-4.82H210.98v4.82c-1.66-5.35-3.07-10.81-4.21-16.37-2.28-11.12-3.47-22.64-3.47-34.43s1.2-23.31,3.47-34.43c1.14-5.56,2.55-11.02,4.21-16.37v4.82h326.32v-4.82c1.66,5.35,3.07,10.81,4.21,16.37,2.28,11.12,3.47,22.64,3.47,34.43Z"/>
        <path class="cls-30" d="M543.7,719.41c0,11.71-1.19,23.13-3.44,34.17-1.13,5.52-2.53,10.94-4.18,16.25v-4.44H212.21v4.44c-1.65-5.31-3.05-10.73-4.18-16.25-2.26-11.04-3.44-22.47-3.44-34.17s1.19-23.13,3.44-34.17c1.13-5.52,2.53-10.94,4.18-16.25v4.44h323.87v-4.44c1.65,5.31,3.05,10.73,4.18,16.25,2.26,11.04,3.44,22.47,3.44,34.17Z"/>
        <path class="cls-27" d="M542.42,719.41c0,11.62-1.18,22.96-3.42,33.91-1.12,5.48-2.51,10.86-4.15,16.13v-4.06H213.44v4.06c-1.64-5.27-3.03-10.65-4.15-16.13-2.24-10.95-3.42-22.3-3.42-33.91s1.18-22.96,3.42-33.91c1.12-5.48,2.51-10.86,4.15-16.13v4.06h321.42v-4.06c1.64,5.27,3.03,10.65,4.15,16.13,2.24,10.95,3.42,22.3,3.42,33.91Z"/>
        <path class="cls-78" d="M541.13,719.41c0,11.53-1.17,22.78-3.39,33.65-1.11,5.44-2.49,10.77-4.11,16v-3.68H214.66v3.68c-1.63-5.23-3-10.57-4.11-16-2.22-10.87-3.39-22.13-3.39-33.65s1.17-22.78,3.39-33.65c1.11-5.44,2.49-10.77,4.11-16v3.68h318.96v-3.68c1.63,5.23,3,10.57,4.11,16,2.22,10.87,3.39,22.13,3.39,33.65Z"/>
        <path class="cls-74" d="M539.85,719.41c0,11.44-1.16,22.61-3.37,33.4-1.1,5.39-2.47,10.69-4.08,15.88v-3.3H215.89v3.3c-1.61-5.19-2.98-10.49-4.08-15.88-2.21-10.79-3.37-21.96-3.37-33.4s1.16-22.61,3.37-33.4c1.1-5.39,2.47-10.69,4.08-15.88v3.3h316.51v-3.3c1.61,5.19,2.98,10.49,4.08,15.88,2.21,10.79,3.37,21.96,3.37,33.4Z"/>
        <path class="cls-89" d="M538.56,719.41c0,11.35-1.15,22.43-3.34,33.14-1.1,5.35-2.45,10.61-4.05,15.76v-2.91H217.12v2.91c-1.6-5.15-2.96-10.41-4.05-15.76-2.19-10.7-3.34-21.79-3.34-33.14s1.15-22.43,3.34-33.14c1.1-5.35,2.45-10.61,4.05-15.76v2.91h314.06v-2.91c1.6,5.15,2.96,10.41,4.05,15.76,2.19,10.7,3.34,21.79,3.34,33.14Z"/>
        <path class="cls-92" d="M537.28,719.41c0,11.26-1.14,22.26-3.31,32.88-1.09,5.31-2.43,10.53-4.02,15.63v-2.53H218.34v2.53c-1.59-5.11-2.93-10.32-4.02-15.63-2.17-10.62-3.31-21.62-3.31-32.88s1.14-22.26,3.31-32.88c1.09-5.31,2.43-10.53,4.02-15.63v2.53h311.6v-2.53c1.59,5.11,2.93,10.32,4.02,15.63,2.17,10.62,3.31,21.62,3.31,32.88Z"/>
        <path class="cls-10" d="M535.99,719.41c0,11.17-1.13,22.08-3.29,32.62-1.08,5.27-2.41,10.44-3.99,15.51v-2.15H219.57v2.15c-1.58-5.07-2.91-10.24-3.99-15.51-2.16-10.54-3.29-21.45-3.29-32.62s1.13-22.08,3.29-32.62c1.08-5.27,2.41-10.44,3.99-15.51v2.15h309.15v-2.15c1.58,5.07,2.91,10.24,3.99,15.51,2.16,10.54,3.29,21.45,3.29,32.62Z"/>
        <path class="cls-104" d="M534.71,719.41c0,11.08-1.12,21.91-3.26,32.36-1.07,5.23-2.39,10.36-3.96,15.39v-1.77H220.8v1.77c-1.56-5.03-2.89-10.16-3.96-15.39-2.14-10.45-3.26-21.27-3.26-32.36s1.12-21.91,3.26-32.36c1.07-5.23,2.39-10.36,3.96-15.39v1.77h306.69v-1.77c1.56,5.03,2.89,10.16,3.96,15.39,2.14,10.45,3.26,21.27,3.26,32.36Z"/>
        <path class="cls-43" d="M533.43,719.41c0,11-1.11,21.73-3.24,32.1-1.06,5.18-2.37,10.28-3.92,15.26v-1.39H222.02v1.39c-1.55-4.99-2.86-10.08-3.92-15.26-2.12-10.37-3.24-21.1-3.24-32.1s1.11-21.73,3.24-32.1c1.06-5.18,2.37-10.28,3.92-15.26v1.39h304.24v-1.39c1.55,4.99,2.86,10.08,3.92,15.26,2.12,10.37,3.24,21.1,3.24,32.1Z"/>
        <path class="cls-83" d="M532.14,719.41c0,10.91-1.11,21.56-3.21,31.84-1.05,5.14-2.35,10.19-3.89,15.14v-1H223.25v1c-1.54-4.95-2.84-10-3.89-15.14-2.1-10.29-3.21-20.93-3.21-31.84s1.11-21.56,3.21-31.84c1.05-5.14,2.35-10.19,3.89-15.14v1h301.79v-1c1.54,4.95,2.84,10,3.89,15.14,2.1,10.29,3.21,20.93,3.21,31.84Z"/>
        <path class="cls-136" d="M530.86,719.41c0,10.82-1.1,21.38-3.18,31.58-1.04,5.1-2.34,10.11-3.86,15.02v-.62H224.48v.62c-1.53-4.91-2.82-9.92-3.86-15.02-2.09-10.2-3.18-20.76-3.18-31.58s1.1-21.38,3.18-31.58c1.04-5.1,2.34-10.11,3.86-15.02v.62h299.33v-.62c1.53,4.91,2.82,9.92,3.86,15.02,2.09,10.2,3.18,20.76,3.18,31.58Z"/>
        <path class="cls-70" d="M529.57,719.41c0,10.73-1.09,21.21-3.16,31.32-1.04,5.06-2.32,10.03-3.83,14.9v-.24H225.7v.24c-1.51-4.87-2.79-9.84-3.83-14.9-2.07-10.12-3.16-20.59-3.16-31.32s1.09-21.21,3.16-31.32c1.04-5.06,2.32-10.03,3.83-14.9v.24h296.88v-.24c1.51,4.87,2.79,9.84,3.83,14.9,2.07,10.12,3.16,20.59,3.16,31.32Z"/>
        <path class="cls-140" d="M528.29,719.41c0,10.64-1.08,21.03-3.13,31.07-1.03,5.02-2.3,9.95-3.8,14.77-.38,1.21-.77,2.41-1.17,3.6v-3.46H228.1v3.46c-.4-1.19-.79-2.39-1.17-3.6-1.5-4.83-2.77-9.76-3.8-14.77-2.05-10.03-3.13-20.42-3.13-31.07s1.08-21.03,3.13-31.07c1.03-5.02,2.3-9.95,3.8-14.77.38-1.21.77-2.41,1.17-3.6v3.46h292.09v-3.46c.4,1.19.79,2.39,1.17,3.6,1.5,4.83,2.77,9.76,3.8,14.77,2.05,10.03,3.13,20.42,3.13,31.07Z"/>
        <path class="cls-107" d="M527,719.41c0,10.55-1.07,20.86-3.11,30.81-1.02,4.98-2.28,9.86-3.77,14.65-.74,2.39-1.55,4.76-2.4,7.1v-6.58H230.56v6.58c-.86-2.34-1.66-4.71-2.4-7.1-1.49-4.79-2.75-9.67-3.77-14.65-2.04-9.95-3.11-20.25-3.11-30.81s1.07-20.86,3.11-30.81c1.02-4.98,2.28-9.86,3.77-14.65.74-2.39,1.55-4.76,2.4-7.1v6.58h287.17v-6.58c.86,2.34,1.66,4.71,2.4,7.1,1.49,4.79,2.75,9.67,3.77,14.65,2.04,9.95,3.11,20.25,3.11,30.81Z"/>
        <path class="cls-98" d="M525.72,719.41c0,10.46-1.06,20.68-3.08,30.55-1.01,4.93-2.26,9.78-3.74,14.53-.74,2.37-1.53,4.72-2.38,7.04v-6.14H231.77v6.14c-.85-2.32-1.64-4.67-2.38-7.04-1.48-4.75-2.73-9.59-3.74-14.53-2.02-9.87-3.08-20.08-3.08-30.55s1.06-20.68,3.08-30.55c1.01-4.93,2.26-9.78,3.74-14.53.74-2.37,1.53-4.72,2.38-7.04v6.14h284.75v-6.14c.85,2.32,1.64,4.67,2.38,7.04,1.48,4.75,2.73,9.59,3.74,14.53,2.02,9.87,3.08,20.08,3.08,30.55Z"/>
        <path class="cls-91" d="M524.43,719.41c0,10.38-1.05,20.51-3.05,30.29-1,4.89-2.24,9.7-3.7,14.4-.73,2.35-1.52,4.68-2.36,6.98v-5.69H232.97v5.69c-.84-2.3-1.63-4.63-2.36-6.98-1.46-4.71-2.7-9.51-3.7-14.4-2-9.78-3.05-19.91-3.05-30.29s1.05-20.51,3.05-30.29c1-4.89,2.24-9.7,3.7-14.4.73-2.35,1.52-4.68,2.36-6.98v5.69h282.34v-5.69c.84,2.3,1.63,4.63,2.36,6.98,1.46,4.71,2.7,9.51,3.7,14.4,2,9.78,3.05,19.91,3.05,30.29Z"/>
        <path class="cls-63" d="M523.15,719.41c0,10.29-1.04,20.33-3.03,30.03-.99,4.85-2.22,9.61-3.67,14.28-.73,2.33-1.51,4.64-2.34,6.92v-5.25H234.18v5.25c-.84-2.28-1.62-4.59-2.34-6.92-1.45-4.67-2.68-9.43-3.67-14.28-1.98-9.7-3.03-19.74-3.03-30.03s1.04-20.33,3.03-30.03c.99-4.85,2.22-9.61,3.67-14.28.73-2.33,1.51-4.64,2.34-6.92v5.25h279.93v-5.25c.84,2.28,1.62,4.59,2.34,6.92,1.45,4.67,2.68,9.43,3.67,14.28,1.98,9.7,3.03,19.74,3.03,30.03Z"/>
        <path class="cls-149" d="M521.87,719.41c0,10.2-1.03,20.15-3,29.77-.98,4.81-2.2,9.53-3.64,14.16-.72,2.31-1.49,4.6-2.32,6.86v-4.81H235.39v4.81c-.83-2.26-1.6-4.55-2.32-6.86-1.44-4.63-2.66-9.35-3.64-14.16-1.97-9.62-3-19.57-3-29.77s1.03-20.15,3-29.77c.98-4.81,2.2-9.53,3.64-14.16.72-2.31,1.49-4.6,2.32-6.86v4.81h277.51v-4.81c.83,2.26,1.6,4.55,2.32,6.86,1.44,4.63,2.66,9.35,3.64,14.16,1.97,9.62,3,19.57,3,29.77Z"/>
        <path class="cls-97" d="M520.58,719.41c0,10.11-1.02,19.98-2.98,29.51-.98,4.77-2.18,9.45-3.61,14.03-.71,2.29-1.48,4.56-2.3,6.8v-4.37H236.59v4.37c-.82-2.24-1.59-4.51-2.3-6.8-1.43-4.59-2.63-9.27-3.61-14.03-1.95-9.53-2.98-19.4-2.98-29.51s1.02-19.98,2.98-29.51c.98-4.77,2.18-9.45,3.61-14.03.71-2.29,1.48-4.56,2.3-6.8v4.37h275.1v-4.37c.82,2.24,1.59,4.51,2.3,6.8,1.43,4.59,2.63,9.27,3.61,14.03,1.95,9.53,2.98,19.4,2.98,29.51Z"/>
        <path class="cls-35" d="M519.3,719.41c0,10.02-1.02,19.8-2.95,29.25-.97,4.72-2.16,9.37-3.58,13.91-.71,2.27-1.47,4.52-2.28,6.74v-3.93H237.8v3.93c-.81-2.22-1.58-4.47-2.28-6.74-1.41-4.55-2.61-9.19-3.58-13.91-1.93-9.45-2.95-19.23-2.95-29.25s1.02-19.8,2.95-29.25c.97-4.72,2.16-9.37,3.58-13.91.71-2.27,1.47-4.52,2.28-6.74v3.93h272.69v-3.93c.81,2.22,1.58,4.47,2.28,6.74,1.41,4.55,2.61,9.19,3.58,13.91,1.93,9.45,2.95,19.23,2.95,29.25Z"/>
        <path class="cls-85" d="M518.01,719.41c0,9.93-1.01,19.63-2.92,28.99-.96,4.68-2.14,9.28-3.55,13.79-.7,2.25-1.46,4.48-2.26,6.68v-3.49H239.01v3.49c-.81-2.2-1.56-4.43-2.26-6.68-1.4-4.5-2.59-9.1-3.55-13.79-1.92-9.37-2.92-19.06-2.92-28.99s1.01-19.63,2.92-28.99c.96-4.68,2.14-9.28,3.55-13.79.7-2.25,1.46-4.48,2.26-6.68v3.49h270.27v-3.49c.81,2.2,1.56,4.43,2.26,6.68,1.4,4.5,2.59,9.1,3.55,13.79,1.92,9.37,2.92,19.06,2.92,28.99Z"/>
        <path class="cls-15" d="M516.73,719.41c0,9.84-1,19.45-2.9,28.74-.95,4.64-2.12,9.2-3.51,13.66-.69,2.23-1.44,4.44-2.24,6.62v-3.04H240.21v3.04c-.8-2.18-1.55-4.39-2.24-6.62-1.39-4.46-2.56-9.02-3.51-13.66-1.9-9.28-2.9-18.89-2.9-28.74s1-19.45,2.9-28.74c.95-4.64,2.12-9.2,3.51-13.66.69-2.23,1.44-4.44,2.24-6.62v3.04h267.86v-3.04c.8,2.18,1.55,4.39,2.24,6.62,1.39,4.46,2.56,9.02,3.51,13.66,1.9,9.28,2.9,18.89,2.9,28.74Z"/>
        <path class="cls-113" d="M515.44,719.41c0,9.75-.99,19.28-2.87,28.48-.94,4.6-2.11,9.12-3.48,13.54-.69,2.21-1.43,4.4-2.22,6.57v-2.6H241.42v2.6c-.79-2.16-1.53-4.35-2.22-6.57-1.38-4.42-2.54-8.94-3.48-13.54-1.88-9.2-2.87-18.72-2.87-28.48s.99-19.28,2.87-28.48c.94-4.6,2.11-9.12,3.48-13.54.69-2.21,1.43-4.4,2.22-6.57v2.6h265.45v-2.6c.79,2.16,1.53,4.35,2.22,6.57,1.38,4.42,2.54,8.94,3.48,13.54,1.88,9.2,2.87,18.72,2.87,28.48Z"/>
        <path class="cls-23" d="M514.16,719.41c0,9.67-.98,19.1-2.84,28.22-.93,4.56-2.09,9.03-3.45,13.42-.68,2.19-1.42,4.36-2.2,6.51v-2.16H242.63v2.16c-.79-2.14-1.52-4.31-2.2-6.51-1.36-4.38-2.52-8.86-3.45-13.42-1.87-9.11-2.84-18.55-2.84-28.22s.98-19.1,2.84-28.22c.93-4.56,2.09-9.03,3.45-13.42.68-2.19,1.42-4.36,2.2-6.51v2.16h263.04v-2.16c.79,2.14,1.52,4.31,2.2,6.51,1.36,4.38,2.52,8.86,3.45,13.42,1.87,9.11,2.84,18.55,2.84,28.22Z"/>
        <path class="cls-59" d="M512.87,719.41c0,9.58-.97,18.93-2.82,27.96-.92,4.52-2.07,8.95-3.42,13.3-.68,2.17-1.4,4.32-2.18,6.45v-1.72H243.83v1.72c-.78-2.12-1.51-4.27-2.18-6.45-1.35-4.34-2.49-8.78-3.42-13.3-1.85-9.03-2.82-18.38-2.82-27.96s.97-18.93,2.82-27.96c.92-4.52,2.07-8.95,3.42-13.3.68-2.17,1.4-4.32,2.18-6.45v1.72h260.62v-1.72c.78,2.12,1.51,4.27,2.18,6.45,1.35,4.34,2.49,8.78,3.42,13.3,1.85,9.03,2.82,18.38,2.82,27.96Z"/>
        <path class="cls-4" d="M511.59,719.41c0,9.49-.96,18.75-2.79,27.7-.92,4.47-2.05,8.87-3.39,13.17-.67,2.15-1.39,4.28-2.16,6.39v-1.28H245.04v1.28c-.77-2.11-1.49-4.23-2.16-6.39-1.34-4.3-2.47-8.7-3.39-13.17-1.83-8.95-2.79-18.21-2.79-27.7s.96-18.75,2.79-27.7c.92-4.47,2.05-8.87,3.39-13.17.67-2.15,1.39-4.28,2.16-6.39v1.28h258.21v-1.28c.77,2.11,1.49,4.23,2.16,6.39,1.34,4.3,2.47,8.7,3.39,13.17,1.83,8.95,2.79,18.21,2.79,27.7Z"/>
        <path class="cls-12" d="M510.3,719.41c0,9.4-.95,18.58-2.77,27.44-.91,4.43-2.03,8.79-3.36,13.05-.66,2.13-1.38,4.24-2.14,6.33v-.84h-255.8v.84c-.76-2.09-1.48-4.19-2.14-6.33-1.33-4.26-2.45-8.62-3.36-13.05-1.81-8.86-2.77-18.04-2.77-27.44s.95-18.58,2.77-27.44c.91-4.43,2.03-8.79,3.36-13.05.66-2.13,1.38-4.24,2.14-6.33v.84h255.8v-.84c.76,2.09,1.48,4.19,2.14,6.33,1.33,4.26,2.45,8.62,3.36,13.05,1.81,8.86,2.77,18.04,2.77,27.44Z"/>
        <path class="cls-9" d="M509.02,719.41c0,18.62-3.77,36.36-10.6,52.5v-6.52h-248.55v6.52c-6.83-16.14-10.6-33.88-10.6-52.5s3.77-36.36,10.6-52.5v6.52h248.55v-6.52c6.83,16.14,10.6,33.88,10.6,52.5Z"/>
        <path class="cls-56" d="M507.74,719.41c0,18.45-3.74,36.02-10.5,52v-6.02h-246.19v6.02c-6.76-15.98-10.5-33.55-10.5-52s3.74-36.02,10.5-52v6.02h246.19v-6.02c6.76,15.98,10.5,33.55,10.5,52Z"/>
        <path class="cls-110" d="M506.45,719.41c0,18.27-3.7,35.67-10.4,51.5v-5.52h-243.82v5.52c-6.7-15.83-10.4-33.23-10.4-51.5s3.7-35.67,10.4-51.5v5.52h243.82v-5.52c6.7,15.83,10.4,33.23,10.4,51.5Z"/>
        <path class="cls-53" d="M505.17,719.41c0,18.09-3.67,35.32-10.3,51v-5.02h-241.45v5.02c-6.63-15.68-10.3-32.91-10.3-51s3.67-35.32,10.3-51v5.02h241.45v-5.02c6.63,15.68,10.3,32.91,10.3,51Z"/>
        <path class="cls-20" d="M503.88,719.41c0,17.91-3.63,34.98-10.2,50.5v-4.52h-239.08v4.52c-6.57-15.52-10.2-32.59-10.2-50.5s3.63-34.98,10.2-50.5v4.52h239.08v-4.52c6.57,15.52,10.2,32.59,10.2,50.5Z"/>
        <path class="cls-126" d="M502.6,719.41c0,17.74-3.59,34.63-10.09,50v-4.02h-236.72v4.02c-6.5-15.37-10.09-32.26-10.09-50s3.59-34.63,10.09-50v4.02h236.72v-4.02c6.5,15.37,10.09,32.26,10.09,50Z"/>
        <path class="cls-16" d="M501.31,719.41c0,17.56-3.56,34.29-9.99,49.5v-3.52h-234.35v3.52c-6.44-15.21-9.99-31.94-9.99-49.5s3.56-34.29,9.99-49.5v3.52h234.35v-3.52c6.44,15.21,9.99,31.94,9.99,49.5Z"/>
        <path class="cls-124" d="M500.03,719.41c0,17.38-3.52,33.94-9.89,49v-3.02h-231.98v3.02c-6.37-15.06-9.89-31.62-9.89-49s3.52-33.94,9.89-49v3.02h231.98v-3.02c6.37,15.06,9.89,31.62,9.89,49Z"/>
        <path class="cls-5" d="M498.74,719.41c0,17.2-3.49,33.59-9.79,48.5v-2.52h-229.62v2.52c-6.31-14.91-9.79-31.3-9.79-48.5s3.49-33.59,9.79-48.5v2.52h229.62v-2.52c6.31,14.91,9.79,31.3,9.79,48.5Z"/>
        <path class="cls-6" d="M497.46,719.41c0,17.03-3.45,33.25-9.69,48v-2.02h-227.25v2.02c-6.24-14.75-9.69-30.97-9.69-48s3.45-33.25,9.69-48v2.02h227.25v-2.02c6.24,14.75,9.69,30.97,9.69,48Z"/>
        <path class="cls-40" d="M496.17,719.41c0,16.85-3.41,32.9-9.59,47.5v-1.52h-224.88v1.52c-6.18-14.6-9.59-30.65-9.59-47.5s3.41-32.9,9.59-47.5v1.52h224.88v-1.52c6.18,14.6,9.59,30.65,9.59,47.5Z"/>
        <path class="cls-25" d="M494.89,719.41c0,16.67-3.38,32.55-9.49,47v-1.02h-222.51v1.02c-6.11-14.45-9.49-30.33-9.49-47s3.38-32.55,9.49-47v1.02h222.51v-1.02c6.11,14.45,9.49,30.33,9.49,47Z"/>
        <path class="cls-145" d="M493.61,719.41c0,16.49-3.34,32.21-9.39,46.5v-.52h-220.15v.52c-6.05-14.29-9.39-30.01-9.39-46.5s3.34-32.21,9.39-46.5v.52h220.15v-.52c6.05,14.29,9.39,30.01,9.39,46.5Z"/>
        <path class="cls-138" d="M492.32,719.41c0,16.32-3.31,31.86-9.29,46v-.02h-217.78v.02c-5.98-14.14-9.29-29.68-9.29-46s3.31-31.86,9.29-46v.02h217.78v-.02c5.98,14.14,9.29,29.68,9.29,46Z"/>
        <path class="cls-60" d="M491.04,719.41c0,16.14-3.27,31.51-9.19,45.5-.74,1.75-1.52,3.47-2.34,5.18v-4.7h-210.73v4.7c-.82-1.7-1.6-3.43-2.34-5.18-5.92-13.98-9.19-29.36-9.19-45.5s3.27-31.51,9.19-45.5c.74-1.75,1.52-3.47,2.34-5.18v4.7h210.73v-4.7c.82,1.7,1.6,3.43,2.34,5.18,5.92,13.98,9.19,29.36,9.19,45.5Z"/>
        <path class="cls-77" d="M489.75,719.41c0,15.96-3.23,31.17-9.09,45-.73,1.73-1.5,3.44-2.32,5.12v-4.14h-208.41v4.14c-.81-1.68-1.58-3.39-2.32-5.12-5.85-13.83-9.09-29.04-9.09-45s3.23-31.17,9.09-45c.73-1.73,1.5-3.44,2.32-5.12v4.14h208.41v-4.14c.81,1.68,1.58,3.39,2.32,5.12,5.85,13.83,9.09,29.04,9.09,45Z"/>
        <path class="cls-39" d="M488.47,719.41c0,15.78-3.2,30.82-8.98,44.5-.72,1.71-1.49,3.4-2.29,5.06v-3.58h-206.1v3.58c-.8-1.67-1.57-3.35-2.29-5.06-5.79-13.68-8.98-28.71-8.98-44.5s3.2-30.82,8.98-44.5c.72-1.71,1.49-3.4,2.29-5.06v3.58h206.1v-3.58c.8,1.67,1.57,3.35,2.29,5.06,5.79,13.68,8.98,28.71,8.98,44.5Z"/>
        <path class="cls-71" d="M487.18,719.41c0,15.61-3.16,30.48-8.88,44-.72,1.69-1.47,3.36-2.26,5.01v-3.03h-203.78v3.03c-.79-1.65-1.55-3.32-2.26-5.01-5.72-13.52-8.88-28.39-8.88-44s3.16-30.48,8.88-44c.72-1.69,1.47-3.36,2.26-5.01v3.03h203.78v-3.03c.79,1.65,1.55,3.32,2.26,5.01,5.72,13.52,8.88,28.39,8.88,44Z"/>
        <path class="cls-68" d="M485.9,719.41c0,15.43-3.13,30.13-8.78,43.5-.71,1.67-1.45,3.32-2.24,4.95v-2.47h-201.47v2.47c-.78-1.63-1.53-3.28-2.24-4.95-5.66-13.37-8.78-28.07-8.78-43.5s3.13-30.13,8.78-43.5c.71-1.67,1.45-3.32,2.24-4.95v2.47h201.47v-2.47c.78,1.63,1.53,3.28,2.24,4.95,5.66,13.37,8.78,28.07,8.78,43.5Z"/>
        <path class="cls-1" d="M484.61,719.41c0,15.25-3.09,29.78-8.68,43-1.4,3.3-2.95,6.53-4.65,9.66v-6.68h-194.27v6.68c-1.7-3.13-3.25-6.35-4.65-9.66-5.59-13.22-8.68-27.75-8.68-43s3.09-29.78,8.68-43c1.4-3.3,2.95-6.53,4.65-9.66v6.68h194.27v-6.68c1.7,3.13,3.25,6.35,4.65,9.66,5.59,13.22,8.68,27.75,8.68,43Z"/>
        <path class="cls-17" d="M483.33,719.41c0,15.08-3.06,29.44-8.58,42.5-1.38,3.27-2.92,6.45-4.6,9.54v-6.06h-192.01v6.06c-1.68-3.09-3.22-6.28-4.6-9.54-5.53-13.06-8.58-27.42-8.58-42.5s3.06-29.44,8.58-42.5c1.38-3.27,2.92-6.45,4.6-9.54v6.06h192.01v-6.06c1.68,3.09,3.22,6.28,4.6,9.54,5.53,13.06,8.58,27.42,8.58,42.5Z"/>
        <path class="cls-72" d="M482.04,719.41c0,14.9-3.02,29.09-8.48,42-1.37,3.23-2.88,6.37-4.54,9.43v-5.45h-189.75v5.45c-1.66-3.06-3.18-6.2-4.54-9.43-5.46-12.91-8.48-27.1-8.48-42s3.02-29.09,8.48-42c1.37-3.23,2.88-6.37,4.54-9.43v5.45h189.75v-5.45c1.66,3.06,3.18,6.2,4.54,9.43,5.46,12.91,8.48,27.1,8.48,42Z"/>
        <path class="cls-69" d="M480.76,719.41c0,14.72-2.98,28.74-8.38,41.5-1.35,3.19-2.85,6.3-4.49,9.32v-4.84h-187.5v4.84c-1.64-3.02-3.14-6.13-4.49-9.32-5.4-12.76-8.38-26.78-8.38-41.5s2.98-28.74,8.38-41.5c1.35-3.19,2.85-6.3,4.49-9.32v4.84h187.5v-4.84c1.64,3.02,3.14,6.13,4.49,9.32,5.4,12.76,8.38,26.78,8.38,41.5Z"/>
        <path class="cls-61" d="M479.48,719.41c0,14.54-2.95,28.4-8.28,41-1.33,3.15-2.81,6.22-4.44,9.21v-4.23h-185.24v4.23c-1.62-2.98-3.1-6.06-4.44-9.21-5.33-12.6-8.28-26.46-8.28-41s2.95-28.4,8.28-41c1.33-3.15,2.81-6.22,4.44-9.21v4.23h185.24v-4.23c1.62,2.98,3.1,6.06,4.44,9.21,5.33,12.6,8.28,26.46,8.28,41Z"/>
        <path class="cls-86" d="M478.19,719.41c0,14.37-2.91,28.05-8.18,40.5-1.32,3.11-2.78,6.15-4.38,9.1v-3.61h-182.98v3.61c-1.6-2.95-3.07-5.98-4.38-9.1-5.27-12.45-8.18-26.13-8.18-40.5s2.91-28.05,8.18-40.5c1.32-3.11,2.78-6.15,4.38-9.1v3.61h182.98v-3.61c1.6,2.95,3.07,5.98,4.38,9.1,5.27,12.45,8.18,26.13,8.18,40.5Z"/>
        <path class="cls-125" d="M476.91,719.41c0,14.19-2.88,27.71-8.08,40-1.3,3.07-2.75,6.07-4.33,8.98v-3h-180.72v3c-1.58-2.91-3.03-5.91-4.33-8.98-5.2-12.29-8.08-25.81-8.08-40s2.88-27.71,8.08-40c1.3-3.07,2.75-6.07,4.33-8.98v3h180.72v-3c1.58,2.91,3.03,5.91,4.33,8.98,5.2,12.29,8.08,25.81,8.08,40Z"/>
        <path class="cls-116" d="M475.62,719.41c0,14.01-2.84,27.36-7.97,39.5-1.28,3.04-2.71,5.99-4.27,8.87v-2.39h-178.46v2.39c-1.56-2.88-2.99-5.84-4.27-8.87-5.14-12.14-7.97-25.49-7.97-39.5s2.84-27.36,7.97-39.5c1.28-3.04,2.71-5.99,4.27-8.87v2.39h178.46v-2.39c1.56,2.88,2.99,5.84,4.27,8.87,5.14,12.14,7.97,25.49,7.97,39.5Z"/>
        <path class="cls-29" d="M474.34,719.41c0,13.83-2.8,27.01-7.87,39-1.27,3-2.68,5.92-4.22,8.76v-1.78h-176.2v1.78c-1.54-2.84-2.95-5.76-4.22-8.76-5.07-11.99-7.87-25.17-7.87-39s2.8-27.01,7.87-39c1.27-3,2.68-5.92,4.22-8.76v1.78h176.2v-1.78c1.54,2.84,2.95,5.76,4.22,8.76,5.07,11.99,7.87,25.17,7.87,39Z"/>
        <path class="cls-96" d="M473.05,719.41c0,13.66-2.77,26.67-7.77,38.5-1.25,2.96-2.64,5.84-4.17,8.65v-1.17h-173.94v1.17c-1.52-2.8-2.91-5.69-4.17-8.65-5.01-11.83-7.77-24.84-7.77-38.5s2.77-26.67,7.77-38.5c1.25-2.96,2.64-5.84,4.17-8.65v1.17h173.94v-1.17c1.52,2.8,2.91,5.69,4.17,8.65,5.01,11.83,7.77,24.84,7.77,38.5Z"/>
        <path class="cls-62" d="M471.77,719.41c0,13.48-2.73,26.32-7.67,38-1.24,2.92-2.61,5.77-4.11,8.53v-.55h-171.68v.55c-1.5-2.77-2.88-5.61-4.11-8.53-4.94-11.68-7.67-24.52-7.67-38s2.73-26.32,7.67-38c1.24-2.92,2.61-5.77,4.11-8.53v.55h171.68v-.55c1.5,2.77,2.88,5.61,4.11,8.53,4.94,11.68,7.67,24.52,7.67,38Z"/>
        <path class="cls-93" d="M470.48,719.41c0,13.3-2.7,25.97-7.57,37.5-1.22,2.88-2.57,5.69-4.06,8.42-.74,1.37-1.52,2.71-2.32,4.03v-3.98h-164.78v3.98c-.8-1.32-1.58-2.67-2.32-4.03-1.48-2.73-2.84-5.54-4.06-8.42-4.88-11.53-7.57-24.2-7.57-37.5s2.7-25.97,7.57-37.5c1.22-2.88,2.57-5.69,4.06-8.42.74-1.37,1.52-2.71,2.32-4.03v3.98h164.78v-3.98c.8,1.32,1.58,2.67,2.32,4.03,1.48,2.73,2.84,5.54,4.06,8.42,4.88,11.53,7.57,24.2,7.57,37.5Z"/>
        <path class="cls-84" d="M469.2,719.41c0,13.12-2.66,25.63-7.47,37-1.2,2.84-2.54,5.62-4,8.31-.73,1.35-1.49,2.67-2.29,3.98v-3.31h-162.59v3.31c-.79-1.31-1.56-2.63-2.29-3.98-1.46-2.69-2.8-5.47-4-8.31-4.81-11.37-7.47-23.88-7.47-37s2.66-25.63,7.47-37c1.2-2.84,2.54-5.62,4-8.31.73-1.35,1.49-2.67,2.29-3.98v3.31h162.59v-3.31c.79,1.31,1.56,2.63,2.29,3.98,1.46,2.69,2.8,5.47,4,8.31,4.81,11.37,7.47,23.88,7.47,37Z"/>
        <path class="cls-32" d="M467.91,719.41c0,12.95-2.62,25.28-7.37,36.5-2.37,5.61-5.28,10.94-8.65,15.93v-6.45h-155.51v6.45c-3.37-4.99-6.27-10.32-8.65-15.93-4.75-11.22-7.37-23.55-7.37-36.5s2.62-25.28,7.37-36.5c2.37-5.61,5.28-10.94,8.65-15.93v6.45h155.51v-6.45c3.37,4.99,6.27,10.32,8.65,15.93,4.75,11.22,7.37,23.55,7.37,36.5Z"/>
        <path class="cls-100" d="M466.63,719.41c0,12.77-2.59,24.93-7.27,36-2.34,5.53-5.2,10.79-8.53,15.71v-5.73h-153.38v5.73c-3.32-4.92-6.19-10.18-8.53-15.71-4.68-11.06-7.27-23.23-7.27-36s2.59-24.93,7.27-36c2.34-5.53,5.2-10.79,8.53-15.71v5.73h153.38v-5.73c3.32,4.92,6.19,10.18,8.53,15.71,4.68,11.06,7.27,23.23,7.27,36Z"/>
        <path class="cls-130" d="M465.35,719.41c0,12.59-2.55,24.59-7.17,35.5-2.31,5.46-5.13,10.64-8.41,15.49v-5.01h-151.25v5.01c-3.28-4.85-6.1-10.04-8.41-15.49-4.62-10.91-7.17-22.91-7.17-35.5s2.55-24.59,7.17-35.5c2.31-5.46,5.13-10.64,8.41-15.49v5.01h151.25v-5.01c3.28,4.85,6.1,10.04,8.41,15.49,4.62,10.91,7.17,22.91,7.17,35.5Z"/>
        <path class="cls-42" d="M464.06,719.41c0,12.41-2.52,24.24-7.07,35-2.28,5.38-5.06,10.49-8.29,15.27v-4.29h-149.12v4.29c-3.23-4.78-6.02-9.89-8.29-15.27-4.55-10.76-7.07-22.58-7.07-35s2.52-24.24,7.07-35c2.28-5.38,5.06-10.49,8.29-15.27v4.29h149.12v-4.29c3.23,4.78,6.02,9.89,8.29,15.27,4.55,10.76,7.07,22.58,7.07,35Z"/>
        <path class="cls-76" d="M462.78,719.41c0,12.24-2.48,23.9-6.97,34.5-2.24,5.3-4.99,10.34-8.17,15.06v-3.57h-146.99v3.57c-3.19-4.72-5.93-9.75-8.17-15.06-4.49-10.6-6.97-22.26-6.97-34.5s2.48-23.9,6.97-34.5c2.24-5.3,4.99-10.34,8.17-15.06v3.57h146.99v-3.57c3.19,4.72,5.93,9.75,8.17,15.06,4.49,10.6,6.97,22.26,6.97,34.5Z"/>
        <path class="cls-76" d="M461.49,719.41c0,12.06-2.44,23.55-6.86,34-2.21,5.23-4.91,10.19-8.05,14.84v-2.86h-144.86v2.86c-3.14-4.65-5.84-9.61-8.05-14.84-4.42-10.45-6.86-21.94-6.86-34s2.44-23.55,6.86-34c2.21-5.23,4.91-10.19,8.05-14.84v2.86h144.86v-2.86c3.14,4.65,5.84,9.61,8.05,14.84,4.42,10.45,6.86,21.94,6.86,34Z"/>
        <path class="cls-41" d="M460.21,719.41c0,11.88-2.41,23.2-6.76,33.5-2.18,5.15-4.84,10.04-7.93,14.62v-2.14h-142.73v2.14c-3.09-4.58-5.76-9.47-7.93-14.62-4.36-10.3-6.76-21.62-6.76-33.5s2.41-23.2,6.76-33.5c2.18-5.15,4.84-10.04,7.93-14.62v2.14h142.73v-2.14c3.09,4.58,5.76,9.47,7.93,14.62,4.36,10.3,6.76,21.62,6.76,33.5Z"/>
        <path class="cls-127" d="M458.92,719.41c0,11.71-2.37,22.86-6.66,33-2.15,5.07-4.77,9.89-7.82,14.4v-1.42h-140.6v1.42c-3.05-4.51-5.67-9.33-7.82-14.4-4.29-10.14-6.66-21.29-6.66-33s2.37-22.86,6.66-33c2.15-5.07,4.77-9.89,7.82-14.4v1.42h140.6v-1.42c3.05,4.51,5.67,9.33,7.82,14.4,4.29,10.14,6.66,21.29,6.66,33Z"/>
        <path class="cls-55" d="M457.64,719.41c0,11.53-2.34,22.51-6.56,32.5-2.11,4.99-4.7,9.74-7.7,14.18v-.7h-138.47v.7c-3-4.44-5.59-9.19-7.7-14.18-4.23-9.99-6.56-20.97-6.56-32.5s2.34-22.51,6.56-32.5c2.11-4.99,4.7-9.74,7.7-14.18v.7h138.47v-.7c3,4.44,5.59,9.19,7.7,14.18,4.23,9.99,6.56,20.97,6.56,32.5Z"/>
        <path class="cls-13" d="M456.35,719.41c0,11.35-2.3,22.16-6.46,32-2.08,4.92-4.62,9.59-7.58,13.96-1.48,2.19-3.06,4.3-4.73,6.33v-6.31h-126.87v6.31c-1.68-2.03-3.26-4.14-4.73-6.33-2.95-4.37-5.5-9.05-7.58-13.96-4.16-9.84-6.46-20.65-6.46-32s2.3-22.16,6.46-32c2.08-4.92,4.62-9.59,7.58-13.96,1.48-2.19,3.06-4.3,4.73-6.33v6.31h126.87v-6.31c1.68,2.03,3.26,4.14,4.73,6.33,2.95,4.37,5.5,9.05,7.58,13.96,4.16,9.84,6.46,20.65,6.46,32Z"/>
        <path class="cls-147" d="M455.07,719.41c0,11.17-2.26,21.82-6.36,31.5-2.05,4.84-4.55,9.44-7.46,13.75-1.45,2.15-3.01,4.23-4.66,6.23v-5.5h-124.89v5.5c-1.65-2-3.2-4.08-4.66-6.23-2.91-4.31-5.41-8.91-7.46-13.75-4.1-9.68-6.36-20.33-6.36-31.5s2.26-21.82,6.36-31.5c2.05-4.84,4.55-9.44,7.46-13.75,1.45-2.15,3.01-4.23,4.66-6.23v5.5h124.89v-5.5c1.65,2,3.2,4.08,4.66,6.23,2.91,4.31,5.41,8.91,7.46,13.75,4.1,9.68,6.36,20.33,6.36,31.5Z"/>
        <path class="cls-48" d="M453.78,719.41c0,11-2.23,21.47-6.26,31-2.02,4.76-4.48,9.29-7.34,13.53-1.43,2.12-2.96,4.16-4.58,6.13v-4.68h-122.91v4.68c-1.62-1.97-3.15-4.01-4.58-6.13-2.86-4.24-5.33-8.76-7.34-13.53-4.03-9.53-6.26-20-6.26-31s2.23-21.47,6.26-31c2.02-4.76,4.48-9.29,7.34-13.53,1.43-2.12,2.96-4.16,4.58-6.13v4.68h122.91v-4.68c1.62,1.97,3.15,4.01,4.58,6.13,2.86,4.24,5.33,8.76,7.34,13.53,4.03,9.53,6.26,20,6.26,31Z"/>
        <path class="cls-31" d="M452.5,719.41c0,10.82-2.19,21.13-6.16,30.5-1.98,4.69-4.41,9.14-7.22,13.31-1.41,2.08-2.91,4.1-4.51,6.03v-3.86h-120.93v3.86c-1.6-1.93-3.1-3.95-4.51-6.03-2.82-4.17-5.24-8.62-7.22-13.31-3.97-9.37-6.16-19.68-6.16-30.5s2.19-21.13,6.16-30.5c1.98-4.69,4.41-9.14,7.22-13.31,1.41-2.08,2.91-4.1,4.51-6.03v3.86h120.93v-3.86c1.6,1.93,3.1,3.95,4.51,6.03,2.82,4.17,5.24,8.62,7.22,13.31,3.97,9.37,6.16,19.68,6.16,30.5Z"/>
        <path class="cls-31" d="M451.22,719.41c0,10.64-2.16,20.78-6.06,30-1.95,4.61-4.34,8.99-7.11,13.09-1.39,2.05-2.87,4.03-4.44,5.93v-3.04h-118.94v3.04c-1.57-1.9-3.05-3.88-4.44-5.93-2.77-4.1-5.16-8.48-7.11-13.09-3.9-9.22-6.06-19.36-6.06-30s2.16-20.78,6.06-30c1.95-4.61,4.34-8.99,7.11-13.09,1.39-2.05,2.87-4.03,4.44-5.93v3.04h118.94v-3.04c1.57,1.9,3.05,3.88,4.44,5.93,2.77,4.1,5.16,8.48,7.11,13.09,3.9,9.22,6.06,19.36,6.06,30Z"/>
        <path class="cls-141" d="M449.93,719.41c0,10.46-2.12,20.43-5.96,29.5-1.92,4.53-4.26,8.84-6.99,12.87-1.36,2.02-2.82,3.96-4.36,5.83v-2.23h-116.96v2.23c-1.54-1.87-3-3.82-4.36-5.83-2.72-4.03-5.07-8.34-6.99-12.87-3.84-9.07-5.96-19.04-5.96-29.5s2.12-20.43,5.96-29.5c1.92-4.53,4.26-8.84,6.99-12.87,1.36-2.02,2.82-3.96,4.36-5.83v2.23h116.96v-2.23c1.54,1.87,3,3.82,4.36,5.83,2.72,4.03,5.07,8.34,6.99,12.87,3.84,9.07,5.96,19.04,5.96,29.5Z"/>
        <path class="cls-79" d="M448.65,719.41c0,20.57-8.34,39.2-21.82,52.68v-6.7h-105.36v6.7c-13.48-13.48-21.82-32.11-21.82-52.68s8.34-39.2,21.82-52.68v6.7h105.36v-6.7c13.48,13.48,21.82,32.11,21.82,52.68Z"/>
        <path class="cls-122" d="M447.36,719.41c0,20.22-8.2,38.52-21.45,51.77v-5.79h-103.55v5.79c-13.25-13.25-21.45-31.55-21.45-51.77s8.2-38.52,21.45-51.77v5.79h103.55v-5.79c13.25,13.25,21.45,31.55,21.45,51.77Z"/>
        <path class="cls-50" d="M446.08,719.41c0,19.86-8.05,37.85-21.07,50.86v-4.88h-101.73v4.88c-13.02-13.02-21.07-31-21.07-50.86s8.05-37.85,21.07-50.86v4.88h101.73v-4.88c13.02,13.02,21.07,31,21.07,50.86Z"/>
        <path class="cls-50" d="M444.79,719.41c0,19.51-7.91,37.17-20.69,49.96v-3.98h-99.91v3.98c-12.78-12.78-20.69-30.45-20.69-49.96s7.91-37.17,20.69-49.96v3.98h99.91v-3.98c12.78,12.78,20.69,30.45,20.69,49.96Z"/>
        <path class="cls-2" d="M443.51,719.41c0,19.15-7.76,36.5-20.32,49.05v-3.07h-98.1v3.07c-12.55-12.55-20.32-29.89-20.32-49.05s7.76-36.5,20.32-49.05v3.07h98.1v-3.07c12.55,12.55,20.32,29.89,20.32,49.05Z"/>
        <path class="cls-112" d="M442.22,719.41c0,18.8-7.62,35.82-19.94,48.14v-2.16h-96.28v2.16c-12.32-12.32-19.94-29.34-19.94-48.14s7.62-35.82,19.94-48.14v2.16h96.28v-2.16c12.32,12.32,19.94,29.34,19.94,48.14Z"/>
        <path class="cls-57" d="M440.94,719.41c0,18.45-7.48,35.14-19.56,47.23v-1.25h-94.46v1.25c-12.09-12.09-19.56-28.79-19.56-47.23s7.48-35.14,19.56-47.23v1.25h94.46v-1.25c12.09,12.09,19.56,28.79,19.56,47.23Z"/>
        <path class="cls-57" d="M439.66,719.41c0,18.09-7.33,34.47-19.19,46.32v-.34h-92.65v.34c-11.86-11.86-19.19-28.23-19.19-46.32s7.33-34.47,19.19-46.32v.34h92.65v-.34c11.86,11.86,19.19,28.23,19.19,46.32Z"/>
        <path class="cls-46" d="M438.37,719.41c0,17.74-7.19,33.79-18.81,45.41-1.45,1.45-2.97,2.84-4.56,4.15v-3.58h-81.71v3.58c-1.59-1.31-3.11-2.69-4.56-4.15-11.62-11.62-18.81-27.68-18.81-45.41s7.19-33.79,18.81-45.41c1.45-1.45,2.97-2.84,4.56-4.15v3.58h81.71v-3.58c1.59,1.31,3.11,2.69,4.56,4.15,11.62,11.62,18.81,27.68,18.81,45.41Z"/>
        <path class="cls-82" d="M437.09,719.41c0,17.38-7.05,33.12-18.44,44.51-2.85,2.85-5.97,5.42-9.32,7.69v-6.21h-70.38v6.21c-3.35-2.26-6.47-4.84-9.32-7.69-11.39-11.39-18.44-27.13-18.44-44.51s7.05-33.12,18.44-44.51c2.85-2.85,5.97-5.42,9.32-7.69v6.21h70.38v-6.21c3.35,2.26,6.47,4.84,9.32,7.69,11.39,11.39,18.44,27.13,18.44,44.51Z"/>
        <path class="cls-47" d="M435.8,719.41c0,17.03-6.9,32.44-18.06,43.6-2.79,2.79-5.84,5.31-9.13,7.53v-5.15h-68.95v5.15c-3.28-2.22-6.34-4.74-9.13-7.53-11.16-11.16-18.06-26.57-18.06-43.6s6.9-32.44,18.06-43.6c2.79-2.79,5.84-5.31,9.13-7.53v5.15h68.95v-5.15c3.28,2.22,6.34,4.74,9.13,7.53,11.16,11.16,18.06,26.57,18.06,43.6Z"/>
        <path class="cls-47" d="M434.52,719.41c0,16.67-6.76,31.76-17.68,42.69-2.73,2.73-5.72,5.2-8.94,7.37v-4.08h-67.51v4.08c-3.21-2.17-6.2-4.64-8.94-7.37-10.93-10.93-17.68-26.02-17.68-42.69s6.76-31.76,17.68-42.69c2.73-2.73,5.72-5.2,8.94-7.37v4.08h67.51v-4.08c3.21,2.17,6.2,4.64,8.94,7.37,10.93,10.93,17.68,26.02,17.68,42.69Z"/>
        <path class="cls-81" d="M433.23,719.41c0,16.32-6.61,31.09-17.31,41.78-2.67,2.67-5.6,5.09-8.74,7.22v-3.02h-66.07v3.02c-3.14-2.12-6.07-4.54-8.74-7.22-10.69-10.69-17.31-25.46-17.31-41.78s6.61-31.09,17.31-41.78c2.67-2.67,5.6-5.09,8.74-7.22v3.02h66.07v-3.02c3.14,2.12,6.07,4.54,8.74,7.22,10.69,10.69,17.31,25.46,17.31,41.78Z"/>
        <path class="cls-80" d="M431.95,719.41c0,15.96-6.47,30.41-16.93,40.87-2.62,2.62-5.48,4.98-8.55,7.06v-1.95h-64.64v1.95c-3.08-2.08-5.94-4.44-8.55-7.06-10.46-10.46-16.93-24.91-16.93-40.87s6.47-30.41,16.93-40.87c2.62-2.62,5.48-4.98,8.55-7.06v1.95h64.64v-1.95c3.08,2.08,5.94,4.44,8.55,7.06,10.46,10.46,16.93,24.91,16.93,40.87Z"/>
        <path class="cls-75" d="M430.66,719.41c0,15.61-6.33,29.74-16.55,39.97-5.11,5.11-11.2,9.25-17.97,12.11v-6.1h-44v6.1c-6.76-2.86-12.85-7-17.97-12.11-10.23-10.23-16.55-24.36-16.55-39.97s6.33-29.74,16.55-39.97c5.11-5.11,11.2-9.25,17.97-12.11v6.1h44v-6.1c6.76,2.86,12.85,7,17.97,12.11,10.23,10.23,16.55,24.36,16.55,39.97Z"/>
        <path class="cls-75" d="M429.38,719.41c0,15.25-6.18,29.06-16.18,39.06-5,5-10.95,9.04-17.56,11.84v-4.91h-43v4.91c-6.61-2.8-12.56-6.84-17.56-11.84-10-10-16.18-23.8-16.18-39.06s6.18-29.06,16.18-39.06c5-5,10.95-9.04,17.56-11.84v4.91h43v-4.91c6.61,2.8,12.56,6.84,17.56,11.84,10,10,16.18,23.8,16.18,39.06Z"/>
        <path class="cls-94" d="M428.09,719.41c0,14.9-6.04,28.39-15.8,38.15-4.88,4.88-10.69,8.83-17.15,11.56v-3.73h-42v3.73c-6.45-2.73-12.27-6.68-17.15-11.56-9.76-9.76-15.8-23.25-15.8-38.15s6.04-28.39,15.8-38.15c4.88-4.88,10.69-8.83,17.15-11.56v3.73h42v-3.73c6.45,2.73,12.27,6.68,17.15,11.56,9.76,9.76,15.8,23.25,15.8,38.15Z"/>
        <circle class="cls-3" cx="374.14" cy="719.41" r="52.67"/>
        <circle class="cls-3" cx="374.14" cy="719.41" r="51.38"/>
        <circle class="cls-146" cx="374.14" cy="719.41" r="50.1"/>
        <circle class="cls-146" cx="374.14" cy="719.41" r="48.81"/>
        <circle class="cls-101" cx="374.14" cy="719.41" r="47.53"/>
        <circle class="cls-105" cx="374.14" cy="719.41" r="46.24"/>
        <circle class="cls-105" cx="374.14" cy="719.41" r="44.96"/>
        <circle class="cls-49" cx="374.14" cy="719.41" r="43.67"/>
        <circle class="cls-49" cx="374.14" cy="719.41" r="42.39"/>
        <circle class="cls-102" cx="374.14" cy="719.41" r="41.1"/>
        <circle class="cls-120" cx="374.14" cy="719.41" r="39.82"/>
        <circle class="cls-120" cx="374.14" cy="719.41" r="38.54"/>
        <circle class="cls-143" cx="374.14" cy="719.41" r="37.25"/>
        <circle class="cls-143" cx="374.14" cy="719.41" r="35.97"/>
        <circle class="cls-137" cx="374.14" cy="719.41" r="34.68"/>
        <circle class="cls-137" cx="374.14" cy="719.41" r="33.4"/>
        <circle class="cls-109" cx="374.14" cy="719.41" r="32.11"/>
        <circle class="cls-109" cx="374.14" cy="719.41" r="30.83"/>
        <circle class="cls-151" cx="374.14" cy="719.41" r="29.54"/>
        <circle class="cls-151" cx="374.14" cy="719.41" r="28.26"/>
        <circle class="cls-58" cx="374.14" cy="719.41" r="26.98"/>
        <circle class="cls-58" cx="374.14" cy="719.41" r="25.69"/>
        <circle class="cls-58" cx="374.14" cy="719.41" r="24.41"/>
        <circle class="cls-135" cx="374.14" cy="719.41" r="23.12"/>
        <circle class="cls-135" cx="374.14" cy="719.41" r="21.84"/>
        <circle class="cls-88" cx="374.14" cy="719.41" r="20.55"/>
        <circle class="cls-88" cx="374.14" cy="719.41" r="19.27"/>
        <circle class="cls-88" cx="374.14" cy="719.41" r="17.98"/>
        <circle class="cls-87" cx="374.14" cy="719.41" r="16.7"/>
        <circle class="cls-87" cx="374.14" cy="719.41" r="15.41"/>
        <circle class="cls-87" cx="374.14" cy="719.41" r="14.13"/>
        <circle class="cls-87" cx="374.14" cy="719.41" r="12.85"/>
        <circle class="cls-18" cx="374.14" cy="719.41" r="11.56"/>
        <circle class="cls-18" cx="374.14" cy="719.41" r="10.28"/>
        <circle class="cls-18" cx="374.14" cy="719.41" r="8.99"/>
        <circle class="cls-18" cx="374.14" cy="719.41" r="7.71"/>
        <circle class="cls-65" cx="374.14" cy="719.41" r="6.42"/>
        <circle class="cls-65" cx="374.14" cy="719.41" r="5.14"/>
        <circle class="cls-65" cx="374.14" cy="719.41" r="3.85"/>
        <circle class="cls-65" cx="374.14" cy="719.41" r="2.57"/>
        <circle class="cls-65" cx="374.14" cy="719.41" r="1.28"/>
      </g>
      <path class="cls-44" d="M378.47,672.39l-3.02-1.21-1.3-.52-.49.2-5.19,2.08-236.2,94.95h483.76l-237.56-95.5ZM168.45,760.89l205.21-82.49.49-.2,205.7,82.69H168.45Z"/>
    </g>
    <g>
      <path class="cls-44" d="M615.05,767.89l-236.58-95.1-3.73-1.5-1.08-.43-.22-.09-4.97,2-236.91,95.23h483.76l-.27-.11ZM373.44,678.31l.22.09,205.2,82.49.27.11H167.74l205.7-82.69Z"/>
      <polygon class="cls-52" points="578.86 760.89 168.45 760.89 373.66 678.4 578.86 760.89"/>
    </g>
  </g>
</svg>