<?xml version="1.0" encoding="UTF-8"?>
<svg xmlns="http://www.w3.org/2000/svg" xmlns:xlink="http://www.w3.org/1999/xlink" viewBox="0 0 768 793">
  <defs>
    <style>
      .cls-1 {
        fill: url(#linear-gradient);
      }

      .cls-1, .cls-2, .cls-3 {
        stroke-width: 0px;
      }

      .cls-2 {
        fill: #f2f2f2;
      }

      .cls-3 {
        fill: url(#linear-gradient-2);
      }

      .cls-4 {
        opacity: .38;
      }
    </style>
    <linearGradient id="linear-gradient" x1="29.88" y1="178.46" x2="738.12" y2="178.46" gradientUnits="userSpaceOnUse">
      <stop offset="0" stop-color="#cce0f4"/>
      <stop offset=".33" stop-color="#4ff6d8"/>
      <stop offset=".47" stop-color="#1effcd"/>
      <stop offset=".67" stop-color="#16fac9"/>
      <stop offset=".97" stop-color="#02eebf"/>
      <stop offset="1" stop-color="#00edbe"/>
    </linearGradient>
    <linearGradient id="linear-gradient-2" x1="16.89" y1="52.46" x2="750.44" y2="52.46" xlink:href="#linear-gradient"/>
  </defs>
  <g id="glass">
    <path class="cls-2" d="M384.34,29c95.59,0,186.4,2.62,255.71,7.39,86.99,5.98,106.92,13.01,111.4,15.58-4.48,2.57-24.41,9.6-111.4,15.58-69.31,4.76-160.12,7.39-255.71,7.39s-186.4-2.62-255.71-7.39c-86.99-5.98-106.92-13.01-111.4-15.58,4.48-2.57,24.41-9.6,111.4-15.58,69.31-4.76,160.12-7.39,255.71-7.39h0ZM384.34,25C178.84,25,12.25,37.07,12.25,51.96s166.59,26.96,372.08,26.96,372.08-12.07,372.08-26.96-166.59-26.96-372.08-26.96h0Z"/>
    <rect class="cls-2" x="195.12" y="-48.28" width="5" height="447.19" transform="translate(-57.87 242.5) rotate(-56.31)"/>
    <rect class="cls-2" x="346.11" y="172.82" width="447.19" height="5" transform="translate(-1.57 345.46) rotate(-33.69)"/>
    <rect class="cls-2" x="372" y="264" width="24" height="472"/>
    <polygon class="cls-2" points="384 726.5 142.1 793 625.9 793 384 726.5"/>
  </g>
  <g id="Layer_3" data-name="Layer 3">
    <path class="cls-1" d="M738.12,60.75l-353.78,235.86L29.88,60.3c47.32,10.95,188.43,18.9,355.14,18.9s303.9-7.73,353.11-18.45Z"/>
    <g class="cls-4">
      <path class="cls-2" d="M384.01,25.49C189.32,25.49,29.56,36.32,13.29,50.13c-.91.76-1.37,1.54-1.37,2.32,0,2.81,5.94,5.52,16.95,8.07,47.32,10.95,188.43,18.9,355.14,18.9s303.9-7.73,353.11-18.45c11.9-2.59,18.52-5.35,18.94-8.22.02-.1.03-.2.03-.3,0-14.89-166.59-26.96-372.08-26.96ZM747.58,54c-9.01,3.23-34.73,9-107.87,14.03-69.31,4.76-160.12,7.39-255.71,7.39s-186.41-2.63-255.71-7.39c-87-5.98-106.92-13.01-111.4-15.58,4.48-2.56,24.4-9.6,111.4-15.57,69.3-4.77,160.12-7.39,255.71-7.39s186.4,2.62,255.71,7.39c83.21,5.71,105.05,12.4,110.72,15.21.26.13.48.25.68.36-.72.41-1.82.93-3.53,1.55Z"/>
      <path class="cls-3" d="M750.44,52.09l-2.85,1.91c-9.01,3.23-34.73,9-107.87,14.03-69.31,4.76-160.12,7.39-255.71,7.39s-186.41-2.63-255.71-7.39c-87-5.98-106.92-13.01-111.4-15.58,4.48-2.56,24.4-9.6,111.4-15.57,69.3-4.77,160.12-7.39,255.71-7.39s186.4,2.62,255.71,7.39c83.21,5.71,105.05,12.4,110.72,15.21Z"/>
    </g>
  </g>
</svg>