<?xml version="1.0" encoding="UTF-8"?>
<svg id="glass" xmlns="http://www.w3.org/2000/svg" xmlns:xlink="http://www.w3.org/1999/xlink" viewBox="0 0 256.33 763">
  <defs>
    <style>
      .cls-1 {
        fill: url(#radial-gradient);
      }

      .cls-1, .cls-2, .cls-3, .cls-4, .cls-5 {
        stroke: #000;
        stroke-miterlimit: 10;
        stroke-width: 5px;
      }

      .cls-2 {
        fill: url(#linear-gradient-2);
      }

      .cls-3 {
        fill: none;
      }

      .cls-4 {
        fill: url(#linear-gradient);
      }

      .cls-5 {
        fill: url(#radial-gradient-2);
      }
    </style>
    <linearGradient id="linear-gradient" x1="1.72" y1="331.83" x2="292.6" y2="332.94" gradientUnits="userSpaceOnUse">
      <stop offset="0" stop-color="#fff"/>
      <stop offset=".24" stop-color="#fcfcfc"/>
      <stop offset=".37" stop-color="#f4f4f4"/>
      <stop offset=".49" stop-color="#e6e6e6"/>
      <stop offset=".58" stop-color="#d2d2d2"/>
      <stop offset=".67" stop-color="#b8b8b8"/>
      <stop offset=".75" stop-color="#989898"/>
      <stop offset=".83" stop-color="#737373"/>
      <stop offset=".9" stop-color="#474747"/>
      <stop offset=".97" stop-color="#171717"/>
      <stop offset="1" stop-color="#000"/>
    </linearGradient>
    <radialGradient id="radial-gradient" cx="-616.98" cy="660.5" fx="-616.98" fy="660.5" r="405.01" gradientTransform="translate(334.92 617.28) scale(.34 .07)" gradientUnits="userSpaceOnUse">
      <stop offset="0" stop-color="#fff"/>
      <stop offset=".37" stop-color="#fdfdfd"/>
      <stop offset=".51" stop-color="#f6f6f6"/>
      <stop offset=".6" stop-color="#eaeaea"/>
      <stop offset=".68" stop-color="#d9d9d9"/>
      <stop offset=".75" stop-color="#c3c3c3"/>
      <stop offset=".8" stop-color="#a8a8a8"/>
      <stop offset=".86" stop-color="#878787"/>
      <stop offset=".91" stop-color="#626262"/>
      <stop offset=".95" stop-color="#373737"/>
      <stop offset=".99" stop-color="#090909"/>
      <stop offset="1" stop-color="#000"/>
    </radialGradient>
    <radialGradient id="radial-gradient-2" cx="-616.98" cy="713" fx="-616.98" fy="713" r="454.73" gradientTransform="translate(334.92 563.52) scale(.34 .21)" gradientUnits="userSpaceOnUse">
      <stop offset="0" stop-color="#fff"/>
      <stop offset=".09" stop-color="#f7f7f7"/>
      <stop offset=".22" stop-color="#e4e4e4"/>
      <stop offset=".37" stop-color="#c3c3c3"/>
      <stop offset=".54" stop-color="#969696"/>
      <stop offset=".73" stop-color="#5d5d5d"/>
      <stop offset=".93" stop-color="#181818"/>
      <stop offset="1" stop-color="#000"/>
    </radialGradient>
    <linearGradient id="linear-gradient-2" x1="3.71" y1="21.49" x2="308.45" y2="23.95" gradientUnits="userSpaceOnUse">
      <stop offset="0" stop-color="#fff"/>
      <stop offset=".32" stop-color="#fcfcfc"/>
      <stop offset=".46" stop-color="#f5f5f5"/>
      <stop offset=".56" stop-color="#e9e9e9"/>
      <stop offset=".65" stop-color="#d7d7d7"/>
      <stop offset=".72" stop-color="silver"/>
      <stop offset=".79" stop-color="#a3a3a3"/>
      <stop offset=".85" stop-color="#818181"/>
      <stop offset=".9" stop-color="#5a5a5a"/>
      <stop offset=".95" stop-color="#2e2e2e"/>
      <stop offset="1" stop-color="#000"/>
    </linearGradient>
  </defs>
  <path class="cls-4" d="M253.83,23.54v631.96c0-11.05-56.26-20-125.67-20s-125.67,8.95-125.67,20V22.5c0-5.55,14.24-10.58,37.22-14.19C16.83,11.94,2.67,16.96,2.67,22.5c0,11.05,56.26,20,125.67,20s122.1-8.39,125.5-18.96Z"/>
  <path class="cls-3" d="M129.67,6.48c-1.01.12-2.01.24-3.01.37.99-.12,1.99-.25,3.01-.37Z"/>
  <path class="cls-3" d="M253.75,22.5v1.04c-3.39,10.57-58.28,18.96-125.5,18.96S2.58,33.55,2.58,22.5c0-6.22,17.86-11.78,45.86-15.46.5-.06,1.01-.12,1.51-.19.99-.12,1.99-.25,3.01-.37,2.05-.24,4.14-.48,6.28-.7.42-.04.84-.09,1.27-.13.53-.05,1.07-.11,1.6-.16,1.07-.11,2.16-.21,3.25-.31.55-.05,1.1-.1,1.65-.15.73-.06,1.46-.13,2.2-.19.16-.01.32-.03.47-.04.45-.04.9-.07,1.35-.11.07-.01.15-.01.22-.02.69-.05,1.38-.11,2.07-.17.14,0,.29-.02.43-.03.46-.03.92-.07,1.38-.1,2.39-.18,4.82-.35,7.29-.5.86-.05,1.73-.1,2.6-.16,1.98-.11,3.99-.22,6.02-.32,1.39-.07,2.8-.13,4.22-.2,1.72-.07,3.46-.14,5.21-.2.81-.03,1.62-.06,2.43-.08,2.05-.07,4.11-.13,6.19-.18.78-.02,1.56-.04,2.35-.05,5.49-.12,11.1-.18,16.79-.18.94,0,1.88,0,2.82.01.93,0,1.87,0,2.8,0,.36,0,.71,0,1.07.01,1,.01,1.99.02,2.98.03.53,0,1.06.01,1.6.02,1.86.03,3.7.06,5.53.1.78.02,1.56.04,2.35.05,4.22.1,8.38.24,12.45.41,1.34.06,2.67.11,3.99.18.6.02,1.19.05,1.79.08.72.04,1.43.07,2.15.11.75.04,1.5.08,2.24.12.97.06,1.93.11,2.89.17,2.99.18,5.93.38,8.81.6,2.18.17,4.34.34,6.45.52.26.02.53.04.79.07.61.05,1.21.11,1.81.16.6.06,1.19.11,1.78.17h.01c.59.06,1.17.11,1.76.17.3.03.59.06.89.09,1.16.12,2.31.24,3.44.36.29.02.59.06.88.09.56.07,1.11.13,1.66.19.01-.01.02,0,.03,0,.83.1,1.65.2,2.46.29.55.06,1.09.12,1.63.2,29.5,3.67,48.47,9.38,48.47,15.79Z"/>
  <path class="cls-1" d="M253.83,655.5v10c0,11.05-56.26,20-125.67,20s-125.67-8.95-125.67-20v-10c0-11.05,56.26-20,125.67-20s125.67,8.95,125.67,20Z"/>
  <path class="cls-5" d="M253.83,665.5v75c0,11.05-56.26,20-125.67,20s-125.67-8.95-125.67-20v-75c0,11.05,56.26,20,125.67,20s125.67-8.95,125.67-20Z"/>
  <path class="cls-2" d="M253.83,22.5c0,.35-.06.69-.17,1.04-3.39,10.57-58.28,18.96-125.5,18.96S2.5,33.55,2.5,22.5c0-6.22,17.86-11.78,45.86-15.46.5-.06,1.01-.12,1.51-.19.99-.12,1.99-.25,3.01-.37,2.05-.24,4.14-.48,6.28-.7.42-.04.84-.09,1.27-.13.53-.05,1.07-.11,1.6-.16,1.07-.1,2.16-.21,3.25-.31.55-.05,1.1-.1,1.65-.15.73-.06,1.46-.13,2.2-.19.16-.01.32-.03.47-.04.45-.04.9-.07,1.35-.11.07-.01.15-.01.22-.02.69-.05,1.38-.11,2.07-.17.14,0,.29-.02.43-.03.46-.03.92-.07,1.38-.1,2.39-.18,4.82-.35,7.29-.5.86-.05,1.73-.1,2.6-.16,1.98-.11,3.99-.22,6.02-.32,1.39-.07,2.8-.13,4.22-.2,1.72-.07,3.46-.14,5.21-.2.81-.03,1.62-.06,2.43-.08,2.05-.07,4.11-.13,6.19-.18.78-.02,1.56-.04,2.35-.05,5.49-.12,11.1-.18,16.79-.18.94,0,1.88,0,2.82.01.93,0,1.87,0,2.8,0,.36,0,.71,0,1.07.01,1,.01,1.99.02,2.98.03.53,0,1.06.01,1.6.02,1.86.03,3.7.06,5.53.1.78.02,1.56.04,2.35.05,4.22.1,8.38.24,12.45.41,1.34.06,2.67.11,3.99.18.6.02,1.19.05,1.79.08.72.04,1.43.07,2.15.11.75.04,1.5.08,2.24.12.97.06,1.93.11,2.89.17,2.99.18,5.93.38,8.81.6,2.18.16,4.33.33,6.45.52.26.02.53.04.79.07.61.05,1.21.11,1.81.16.6.06,1.19.11,1.78.17h.01c.59.05,1.17.11,1.76.17.3.03.59.06.89.09,1.16.11,2.31.23,3.44.36.29.02.59.06.88.09.56.06,1.11.12,1.66.19.01-.01.02,0,.03,0,.83.09,1.65.19,2.46.29.55.06,1.09.12,1.63.2,29.6,3.64,48.64,9.36,48.64,15.79Z"/>
</svg>