<?xml version="1.0" encoding="UTF-8"?>
<svg id="glass" xmlns="http://www.w3.org/2000/svg" xmlns:xlink="http://www.w3.org/1999/xlink" viewBox="0 0 755.5 763">
  <defs>
    <style>
      .cls-1 {
        fill: url(#radial-gradient);
      }

      .cls-1, .cls-2, .cls-3, .cls-4, .cls-5 {
        stroke: #000;
        stroke-miterlimit: 10;
        stroke-width: 5px;
      }

      .cls-2 {
        fill: url(#linear-gradient-2);
      }

      .cls-3 {
        fill: none;
      }

      .cls-4 {
        fill: url(#linear-gradient);
      }

      .cls-5 {
        fill: url(#radial-gradient-2);
      }
    </style>
    <linearGradient id="linear-gradient" x1="2.5" y1="331.69" x2="865.02" y2="334.98" gradientUnits="userSpaceOnUse">
      <stop offset="0" stop-color="#fff"/>
      <stop offset=".24" stop-color="#fcfcfc"/>
      <stop offset=".37" stop-color="#f4f4f4"/>
      <stop offset=".49" stop-color="#e6e6e6"/>
      <stop offset=".58" stop-color="#d2d2d2"/>
      <stop offset=".67" stop-color="#b8b8b8"/>
      <stop offset=".75" stop-color="#989898"/>
      <stop offset=".83" stop-color="#737373"/>
      <stop offset=".9" stop-color="#474747"/>
      <stop offset=".97" stop-color="#171717"/>
      <stop offset="1" stop-color="#000"/>
    </linearGradient>
    <radialGradient id="radial-gradient" cx="377.5" cy="660.5" fx="377.5" fy="660.5" r="405.01" gradientTransform="translate(0 617.28) scale(1 .07)" gradientUnits="userSpaceOnUse">
      <stop offset="0" stop-color="#fff"/>
      <stop offset=".37" stop-color="#fdfdfd"/>
      <stop offset=".51" stop-color="#f6f6f6"/>
      <stop offset=".6" stop-color="#eaeaea"/>
      <stop offset=".68" stop-color="#d9d9d9"/>
      <stop offset=".75" stop-color="#c3c3c3"/>
      <stop offset=".8" stop-color="#a8a8a8"/>
      <stop offset=".86" stop-color="#878787"/>
      <stop offset=".91" stop-color="#626262"/>
      <stop offset=".95" stop-color="#373737"/>
      <stop offset=".99" stop-color="#090909"/>
      <stop offset="1" stop-color="#000"/>
    </radialGradient>
    <radialGradient id="radial-gradient-2" cx="377.5" cy="713" fx="377.5" fy="713" r="454.73" gradientTransform="translate(0 563.52) scale(1 .21)" gradientUnits="userSpaceOnUse">
      <stop offset="0" stop-color="#fff"/>
      <stop offset=".09" stop-color="#f7f7f7"/>
      <stop offset=".22" stop-color="#e4e4e4"/>
      <stop offset=".37" stop-color="#c3c3c3"/>
      <stop offset=".54" stop-color="#969696"/>
      <stop offset=".73" stop-color="#5d5d5d"/>
      <stop offset=".93" stop-color="#181818"/>
      <stop offset="1" stop-color="#000"/>
    </radialGradient>
    <linearGradient id="linear-gradient-2" x1="6.6" y1="19.5" x2="915.98" y2="26.84" gradientUnits="userSpaceOnUse">
      <stop offset="0" stop-color="#fff"/>
      <stop offset=".32" stop-color="#fcfcfc"/>
      <stop offset=".46" stop-color="#f5f5f5"/>
      <stop offset=".56" stop-color="#e9e9e9"/>
      <stop offset=".65" stop-color="#d7d7d7"/>
      <stop offset=".72" stop-color="silver"/>
      <stop offset=".79" stop-color="#a3a3a3"/>
      <stop offset=".85" stop-color="#818181"/>
      <stop offset=".9" stop-color="#5a5a5a"/>
      <stop offset=".95" stop-color="#2e2e2e"/>
      <stop offset="1" stop-color="#000"/>
    </linearGradient>
  </defs>
  <path class="cls-4" d="M752.5,23.54v631.96c0-11.05-167.89-20-375-20S2.5,644.45,2.5,655.5V22.5c0-5.55,42.48-10.58,111.06-14.19C45.27,11.94,3,16.96,3,22.5c0,11.05,167.89,20,375,20s364.37-8.39,374.5-18.96Z"/>
  <path class="cls-3" d="M153.35,6.48c-3.02.12-6.01.24-8.97.37,2.96-.12,5.94-.25,8.97-.37Z"/>
  <path class="cls-3" d="M752.5,22.5v1.04c-10.13,10.57-173.92,18.96-374.5,18.96S3,33.55,3,22.5c0-6.22,53.29-11.78,136.86-15.46,1.5-.06,3.01-.12,4.52-.19,2.96-.12,5.94-.25,8.97-.37,6.11-.24,12.35-.48,18.74-.7,1.26-.04,2.52-.09,3.79-.13,1.58-.05,3.18-.11,4.78-.16,3.2-.11,6.44-.21,9.7-.31,1.63-.05,3.27-.1,4.92-.15,2.17-.06,4.36-.13,6.56-.19.47-.01.94-.03,1.41-.04,1.34-.04,2.68-.07,4.03-.11.22-.01.44-.01.67-.02,2.05-.05,4.11-.11,6.18-.17.43,0,.86-.02,1.29-.03,1.37-.03,2.74-.07,4.11-.1,7.14-.18,14.39-.35,21.76-.5,2.58-.05,5.17-.1,7.77-.16,5.92-.11,11.92-.22,17.97-.32,4.16-.07,8.36-.13,12.58-.2,5.14-.07,10.33-.14,15.56-.2,2.41-.03,4.83-.06,7.25-.08,6.11-.07,12.26-.13,18.47-.18,2.33-.02,4.66-.04,7-.05,16.39-.12,33.12-.18,50.11-.18,2.81,0,5.61,0,8.41.01,2.79,0,5.58,0,8.36,0,1.06,0,2.13,0,3.19.01,2.97.01,5.94.02,8.89.03,1.59,0,3.17.01,4.76.02,5.54.03,11.04.06,16.5.1,2.34.02,4.67.04,7,.05,12.6.1,25,.24,37.16.41,4,.06,7.97.11,11.91.18,1.79.02,3.56.05,5.34.08,2.14.04,4.28.07,6.41.11,2.24.04,4.47.08,6.69.12,2.89.06,5.76.11,8.61.17,8.93.18,17.69.38,26.28.6,6.52.17,12.94.34,19.24.52.79.02,1.57.04,2.35.07,1.81.05,3.6.11,5.39.16,1.78.06,3.55.11,5.31.17h.03c1.76.06,3.5.11,5.24.17.89.03,1.77.06,2.65.09,3.46.12,6.88.24,10.26.36.88.02,1.75.06,2.62.09,1.66.07,3.31.13,4.95.19.03-.01.06,0,.09,0,2.47.1,4.92.2,7.35.29,1.64.06,3.26.12,4.87.2,88.03,3.67,144.64,9.38,144.64,15.79Z"/>
  <path class="cls-1" d="M752.5,655.5v10c0,11.05-167.89,20-375,20S2.5,676.55,2.5,665.5v-10c0-11.05,167.89-20,375-20s375,8.95,375,20Z"/>
  <path class="cls-5" d="M752.5,665.5v75c0,11.05-167.89,20-375,20S2.5,751.55,2.5,740.5v-75c0,11.05,167.89,20,375,20s375-8.95,375-20Z"/>
  <path class="cls-2" d="M753,22.5c0,.35-.17.69-.5,1.04-10.13,10.57-173.92,18.96-374.5,18.96S3,33.55,3,22.5c0-6.22,53.29-11.78,136.86-15.46,1.5-.06,3.01-.12,4.52-.19,2.96-.12,5.94-.25,8.97-.37,6.11-.24,12.35-.48,18.74-.7,1.26-.04,2.52-.09,3.79-.13,1.58-.05,3.18-.11,4.78-.16,3.2-.1,6.44-.21,9.7-.31,1.63-.05,3.27-.1,4.92-.15,2.17-.06,4.36-.13,6.56-.19.47-.01.94-.03,1.41-.04,1.34-.04,2.68-.07,4.03-.11.22-.01.44-.01.67-.02,2.05-.05,4.11-.11,6.18-.17.43,0,.86-.02,1.29-.03,1.37-.03,2.74-.07,4.11-.1,7.14-.18,14.39-.35,21.76-.5,2.58-.05,5.17-.1,7.77-.16,5.92-.11,11.92-.22,17.97-.32,4.16-.07,8.36-.13,12.58-.2,5.14-.07,10.33-.14,15.56-.2,2.41-.03,4.83-.06,7.25-.08,6.11-.07,12.26-.13,18.47-.18,2.33-.02,4.66-.04,7-.05,16.39-.12,33.12-.18,50.11-.18,2.81,0,5.61,0,8.41.01,2.79,0,5.58,0,8.36,0,1.06,0,2.13,0,3.19.01,2.97.01,5.94.02,8.89.03,1.59,0,3.17.01,4.76.02,5.54.03,11.04.06,16.5.1,2.34.02,4.67.04,7,.05,12.6.1,25,.24,37.16.41,4,.06,7.97.11,11.91.18,1.79.02,3.56.05,5.34.08,2.14.04,4.28.07,6.41.11,2.24.04,4.47.08,6.69.12,2.89.06,5.76.11,8.61.17,8.93.18,17.69.38,26.28.6,6.52.16,12.93.33,19.24.52.79.02,1.57.04,2.35.07,1.81.05,3.6.11,5.39.16,1.78.06,3.55.11,5.31.17h.03c1.75.05,3.5.11,5.24.17.89.03,1.77.06,2.65.09,3.46.11,6.88.23,10.26.36.88.02,1.75.06,2.62.09,1.66.06,3.31.12,4.95.19.03-.01.06,0,.09,0,2.47.09,4.92.19,7.35.29,1.64.06,3.26.12,4.87.2,88.32,3.64,145.14,9.36,145.14,15.79Z"/>
</svg>